<svg width="25" height="15" viewBox="0 0 25 15" fill="none" xmlns="http://www.w3.org/2000/svg">
<g clip-path="url(#clip0_1_243)">
<path fill-rule="evenodd" clip-rule="evenodd" d="M21.9972 11.9783C21.9972 13.6469 20.6763 15 19.0459 15H3.02307V3.05571C3.02307 1.38656 4.34419 0.0335083 5.97463 0.0335083H21.9972V11.9783Z" fill="white"/>
<path fill-rule="evenodd" clip-rule="evenodd" d="M20.9391 1.01702V1.01694V1.01702ZM20.9391 1.01702H20.9188H20.8985H20.8781H20.8578H20.8374H20.8171H20.7966H20.7764H20.756H20.7356H20.7154H20.695H20.6746H20.6543H20.6339H20.6136H20.5932H20.5728H20.5525H20.5322H20.5118H20.4915H20.4711H20.4507H20.4304H20.4101H20.3897H20.3694H20.349H20.3287H20.3083H20.2879H20.2676H20.2473H20.2269H20.2066H20.1862H20.1658H20.1456H20.1252H20.1048H20.0845H20.0641H20.0438H20.0234H20.0031H19.9827H19.9623H19.942H19.9217H19.9013H19.881H19.8607H19.8403H19.8199H19.7996H19.7792H19.7589H19.7386H19.7181H19.6978H19.6775H19.6571H19.6368H19.6165H19.596H19.5757H19.5554H19.535H19.5147H19.4944H19.474H19.4536H19.4333H19.4129H19.3926H19.3723H19.3519H19.3315H19.3112H19.2909H19.2705H19.2502H19.2298H19.2094H19.1891H19.1688H19.1484H19.128H19.1077H19.0873H19.067H19.0467H19.0263H19.0059H18.9856H18.9652H18.9449H18.9246H18.9042H18.8839H18.8635H18.8431H18.8228H18.8024H18.7821H18.7618H18.7413H18.7211H18.7007H18.6803H18.6601H18.6397H18.6193H18.599H18.5786H18.5582H18.538H18.5175H18.4972H18.4769H18.4565H18.4362H18.4158H18.3955H18.3751H18.3547H18.3344H18.3141H18.2937H18.2734H18.253H18.2326H18.2123H18.192H18.1716H18.1513H18.1309H18.1105H18.0903H18.0699H18.0495H18.0292H18.0088H17.9884H17.9681H17.9478H17.9274H17.9071H17.8867H17.8664H17.8511L17.846 1.01711C17.8392 1.01711 17.8325 1.01728 17.8257 1.01728C17.8189 1.01736 17.8121 1.01745 17.8054 1.01762C17.7986 1.01778 17.7918 1.01812 17.785 1.01821L17.7647 1.01906C17.7579 1.01939 17.7511 1.01956 17.7443 1.0199C17.7375 1.02033 17.7307 1.02084 17.7239 1.02117C17.7171 1.02168 17.7103 1.02202 17.7036 1.02262L17.6833 1.02414L17.6629 1.02592C17.6561 1.0266 17.6493 1.02719 17.6425 1.02787C17.6358 1.02855 17.629 1.02939 17.6222 1.03016L17.6018 1.03253C17.595 1.03338 17.5882 1.03406 17.5815 1.03499C17.5748 1.03592 17.568 1.03702 17.5612 1.03795C17.5544 1.03889 17.5475 1.03982 17.5408 1.04092C17.5339 1.04185 17.5272 1.04304 17.5205 1.04414L17.5001 1.04762C17.4933 1.04872 17.4865 1.04982 17.4797 1.05109C17.4729 1.05236 17.4662 1.0538 17.4594 1.05507C17.4526 1.05643 17.4458 1.05778 17.4391 1.05914L17.4187 1.06338L17.3983 1.06795C17.3915 1.06948 17.3848 1.07092 17.378 1.07253C17.3712 1.07414 17.3644 1.07592 17.3576 1.07753C17.3509 1.07923 17.3441 1.08092 17.3373 1.0827L17.317 1.08804C17.3101 1.08982 17.3034 1.09185 17.2966 1.09363C17.2899 1.09558 17.283 1.09745 17.2763 1.09939C17.2694 1.10134 17.2626 1.10346 17.2559 1.10558C17.2491 1.10762 17.2423 1.10965 17.2356 1.11177C17.2288 1.11397 17.222 1.11617 17.2152 1.11838L17.1948 1.12507C17.1881 1.12736 17.1813 1.12965 17.1746 1.13202C17.1677 1.13439 17.161 1.13694 17.1541 1.13939C17.1473 1.14177 17.1405 1.14414 17.1337 1.14668C17.127 1.14923 17.1203 1.15185 17.1135 1.15456L17.0931 1.16245L17.0727 1.17067C17.066 1.17346 17.0592 1.17626 17.0525 1.17914C17.0457 1.18202 17.0388 1.18482 17.032 1.1877C17.0252 1.19067 17.0184 1.1938 17.0117 1.19685C17.0049 1.1999 16.9982 1.20287 16.9914 1.20592C16.9846 1.20914 16.9778 1.21236 16.971 1.21558C16.9642 1.2188 16.9574 1.22202 16.9507 1.22533L16.9304 1.23541C16.9235 1.2388 16.9167 1.24228 16.9099 1.24575C16.9031 1.24923 16.8964 1.2527 16.8896 1.25626C16.8828 1.25982 16.876 1.26363 16.8693 1.26728C16.8625 1.27092 16.8556 1.27456 16.8489 1.27829C16.8421 1.28211 16.8354 1.28609 16.8286 1.28999C16.8218 1.29389 16.8149 1.2977 16.8082 1.3016C16.8014 1.30567 16.7947 1.30973 16.7879 1.31389C16.7811 1.31787 16.7743 1.32202 16.7675 1.32617C16.7607 1.33041 16.7539 1.33465 16.7471 1.33897L16.7268 1.35202C16.72 1.35643 16.7133 1.36092 16.7065 1.36541L16.6861 1.37914L16.6658 1.39329C16.659 1.39795 16.6522 1.40287 16.6454 1.4077L16.625 1.42245C16.6182 1.42753 16.6115 1.43262 16.6048 1.4377C16.598 1.44287 16.5912 1.44804 16.5844 1.45329L16.564 1.46923L16.5437 1.48567C16.5369 1.49109 16.5301 1.49677 16.5233 1.50236C16.5165 1.50804 16.5097 1.51389 16.5029 1.51965C16.4962 1.52541 16.4895 1.53134 16.4827 1.53728C16.4758 1.54321 16.4691 1.54931 16.4623 1.55541C16.4555 1.5616 16.4486 1.5677 16.4419 1.57389C16.4351 1.58024 16.4283 1.58668 16.4216 1.59312C16.4148 1.59956 16.4079 1.606 16.4012 1.61245C16.3943 1.61914 16.3876 1.626 16.3809 1.63278C16.3741 1.63965 16.3672 1.64651 16.3606 1.65346C16.3537 1.66041 16.3469 1.66753 16.3402 1.67473C16.3333 1.68194 16.3266 1.68923 16.3199 1.69651C16.313 1.70397 16.3062 1.71143 16.2995 1.71897C16.2926 1.7266 16.2859 1.73431 16.2791 1.74211C16.2723 1.74999 16.2655 1.75778 16.2588 1.76567C16.2519 1.77389 16.2451 1.78211 16.2384 1.79041C16.2316 1.79872 16.2248 1.80719 16.2181 1.81567C16.2113 1.82423 16.2044 1.83278 16.1978 1.84151C16.1908 1.85041 16.1841 1.85948 16.1774 1.86855C16.1705 1.87778 16.1637 1.88702 16.157 1.89643C16.1503 1.90584 16.1434 1.91533 16.1367 1.92499C16.1297 1.9349 16.123 1.9449 16.1163 1.9549C16.1094 1.96516 16.1027 1.9755 16.096 1.98592C16.0892 1.99643 16.0823 2.00711 16.0757 2.01778C16.0687 2.0288 16.0619 2.03999 16.0552 2.05117C16.0484 2.06278 16.0417 2.07439 16.035 2.08609C16.0281 2.09812 16.0213 2.11033 16.0146 2.12245C16.0076 2.13516 16.0009 2.14778 15.9942 2.16058C15.9873 2.1738 15.9806 2.18711 15.9739 2.2005C15.967 2.21448 15.9601 2.22846 15.9536 2.24253C15.9466 2.25736 15.9398 2.27219 15.9331 2.28719C15.9262 2.30295 15.9195 2.3188 15.9129 2.33482C15.9058 2.35168 15.8991 2.3688 15.8925 2.38584C15.8854 2.40423 15.8787 2.4227 15.8721 2.44134C15.8651 2.46126 15.8583 2.48151 15.8518 2.50177C15.8447 2.52406 15.8379 2.54643 15.8315 2.56897C15.8242 2.59414 15.8174 2.61965 15.8111 2.64516C15.8037 2.67516 15.7969 2.70524 15.7907 2.73575C15.762 2.87778 15.7468 3.02499 15.7468 3.17584V5.41745H15.7907H15.8111H15.8315H15.8518H15.8721H15.8925H15.9129H15.9331H15.9536H15.9739H15.9942H16.0146H16.035H16.0552H16.0757H16.096H16.1163H16.1367H16.157H16.1774H16.1978H16.2181H16.2384H16.2588H16.2791H16.2995H16.3199H16.3402H16.3606H16.3809H16.4012H16.4216H16.4419H16.4623H16.4827H16.5029H16.5233H16.5437H16.564H16.5844H16.6048H16.625H16.6454H16.6658H16.6861H16.7065H16.7268H16.7471H16.7675H16.7879H16.8082H16.8286H16.8489H16.8693H16.8896H16.9099H16.9304H16.9507H16.971H16.9914H17.0117H17.032H17.0525H17.0727H17.0931H17.1135H17.1337H17.1541H17.1746H17.1948H17.2152H17.2356H17.2559H17.2763H17.2966H17.317H17.3373H17.3576H17.378H17.3983H17.4187H17.4391H17.4594H17.4797H17.5001H17.5205H17.5408H17.5612H17.5815H17.6018H17.6222H17.6425H17.6629H17.6833H17.7036H17.7239H17.7443H17.7647H17.785H17.8054H17.8257H17.846H17.8664H17.8867H17.9071H17.9274H17.9478H17.9681H17.9884H18.0088H18.0292H18.0495H18.0699H18.0903H18.1105H18.1309H18.1513H18.1716H18.192H18.2123H18.2326H18.253H18.2734H18.2937H18.3141H18.3344H18.3547H18.3751H18.3955H18.4158H18.4362H18.4565H18.4769H18.4972H18.5175H18.538H18.5582H18.5786H18.599H18.6193H18.6397H18.6601H18.6803H18.7007H18.7211H18.7302H18.7413L18.7618 5.4177L18.7821 5.41821L18.8024 5.41889L18.8228 5.41965L18.8431 5.4205L18.8635 5.42151L18.8839 5.42261L18.9042 5.42372L18.9246 5.42499L18.9368 5.42584L18.9449 5.42626L18.9652 5.42736L18.9856 5.42889L19.0059 5.4305L19.0263 5.43236L19.0467 5.43439L19.067 5.43668L19.0873 5.43914L19.1077 5.44185L19.128 5.44482L19.1484 5.44795C19.1552 5.44914 19.162 5.45024 19.1688 5.45151L19.1891 5.45516C19.1958 5.45634 19.2027 5.4577 19.2094 5.45897C19.2163 5.46033 19.2231 5.46177 19.2298 5.46321L19.2502 5.4677C19.2569 5.46922 19.2637 5.47075 19.2705 5.47228C19.2773 5.47397 19.2841 5.47567 19.2909 5.47736L19.3112 5.4827C19.318 5.48448 19.3248 5.48626 19.3315 5.48821C19.3384 5.49007 19.3452 5.49202 19.3519 5.49397C19.3587 5.496 19.3655 5.49812 19.3723 5.50024C19.379 5.50236 19.3858 5.50448 19.3926 5.50668C19.3994 5.50897 19.4062 5.51117 19.4129 5.51355C19.4198 5.51583 19.4266 5.51821 19.4333 5.52067C19.4401 5.52321 19.4469 5.52575 19.4536 5.52821C19.4605 5.53083 19.4672 5.53346 19.474 5.53617C19.4808 5.53889 19.4876 5.54168 19.4944 5.54439C19.5012 5.54728 19.5079 5.55016 19.5147 5.55312C19.5215 5.55609 19.5282 5.55906 19.535 5.56219C19.5419 5.56524 19.5487 5.56846 19.5554 5.5716C19.5623 5.5749 19.5691 5.57829 19.5757 5.58168C19.5825 5.58516 19.5893 5.58863 19.596 5.59211C19.6029 5.59575 19.6097 5.59939 19.6165 5.60312C19.6234 5.60685 19.6301 5.61067 19.6368 5.61456C19.6436 5.61855 19.6504 5.62253 19.6571 5.6266C19.664 5.63075 19.6708 5.6349 19.6775 5.63923C19.6844 5.64355 19.6911 5.64795 19.6978 5.65245C19.7046 5.65702 19.7114 5.66168 19.7181 5.66634C19.725 5.67126 19.7319 5.676 19.7386 5.681C19.7454 5.68609 19.7522 5.69117 19.7589 5.69643C19.7657 5.70177 19.7725 5.70728 19.7792 5.7127C19.7861 5.71838 19.7929 5.72406 19.7996 5.7299C19.8064 5.73584 19.8133 5.74194 19.8199 5.74804C19.8268 5.75439 19.8336 5.76075 19.8403 5.76736C19.8472 5.77406 19.854 5.78083 19.8607 5.78778C19.8675 5.7949 19.8744 5.80219 19.881 5.80948C19.8879 5.81711 19.8947 5.8249 19.9013 5.83278C19.9083 5.841 19.915 5.84939 19.9217 5.85795C19.9287 5.86677 19.9355 5.87583 19.942 5.88499C19.949 5.89473 19.9558 5.90448 19.9623 5.91448C19.9694 5.92507 19.9761 5.93592 19.9827 5.94685C19.9898 5.95872 19.9966 5.97067 20.0031 5.98278C20.0101 5.99617 20.0169 6.00965 20.0234 6.02338C20.0307 6.0388 20.0375 6.05448 20.0438 6.07041C20.0511 6.08906 20.0579 6.10787 20.0641 6.12719C20.0719 6.15126 20.0786 6.176 20.0845 6.20134C20.0938 6.24185 20.1006 6.28372 20.1048 6.32711C20.1081 6.36109 20.1098 6.39592 20.1098 6.43168C20.1098 6.46541 20.1081 6.49897 20.1048 6.53202C20.1007 6.57389 20.0939 6.61507 20.0845 6.65541C20.0787 6.68033 20.0719 6.70482 20.0641 6.72906C20.0579 6.74829 20.0511 6.76728 20.0438 6.78592C20.0375 6.80202 20.0307 6.81787 20.0234 6.83363C20.017 6.84753 20.0102 6.86126 20.0031 6.8749C19.9966 6.88728 19.9898 6.89956 19.9827 6.9116C19.9762 6.92287 19.9694 6.9338 19.9623 6.94473C19.9558 6.95507 19.949 6.96507 19.942 6.97507C19.9355 6.98456 19.9287 6.99389 19.9217 7.00312C19.915 7.01177 19.9083 7.02041 19.9013 7.02897C19.8947 7.03711 19.8879 7.04507 19.881 7.05312C19.8744 7.06075 19.8676 7.06821 19.8607 7.07566C19.854 7.08287 19.8472 7.0899 19.8403 7.09685C19.8336 7.10363 19.8268 7.11024 19.8199 7.11677C19.8133 7.12321 19.8065 7.12956 19.7996 7.13575C19.7929 7.14177 19.7861 7.1477 19.7792 7.15355C19.7725 7.15931 19.7657 7.16482 19.7589 7.17041C19.7522 7.17584 19.7454 7.18117 19.7386 7.18643C19.7319 7.19151 19.7251 7.1966 19.7181 7.2016C19.7114 7.20651 19.7046 7.21134 19.6978 7.21609C19.6911 7.22075 19.6844 7.22533 19.6775 7.22982C19.6708 7.23422 19.664 7.23863 19.6571 7.24287C19.6504 7.24711 19.6436 7.25126 19.6368 7.25541C19.6301 7.25939 19.6234 7.26329 19.6165 7.26719C19.6098 7.27109 19.6029 7.27482 19.596 7.27855C19.5893 7.28219 19.5825 7.28583 19.5757 7.28931C19.5691 7.29287 19.5623 7.29626 19.5554 7.29965C19.5487 7.30287 19.5419 7.30617 19.535 7.30939C19.5282 7.31261 19.5215 7.31567 19.5147 7.31872C19.5079 7.32177 19.5012 7.32465 19.4944 7.32753C19.4876 7.33041 19.4808 7.33329 19.474 7.336C19.4672 7.33863 19.4605 7.34134 19.4536 7.34397C19.4469 7.34651 19.4401 7.34906 19.4333 7.3516C19.4266 7.35397 19.4198 7.35643 19.4129 7.3588C19.4062 7.36117 19.3995 7.36346 19.3926 7.36566C19.3859 7.36787 19.379 7.37007 19.3723 7.37219C19.3655 7.37431 19.3587 7.37626 19.3519 7.37829C19.3452 7.38033 19.3384 7.38219 19.3315 7.38414C19.3248 7.38592 19.318 7.38787 19.3112 7.38965C19.3044 7.39134 19.2977 7.39312 19.2909 7.3949C19.2842 7.39651 19.2773 7.39812 19.2705 7.39965L19.2502 7.40422C19.2434 7.40575 19.2366 7.40711 19.2298 7.40855L19.2094 7.41253C19.2027 7.4138 19.1958 7.41499 19.1891 7.41617L19.1688 7.41956L19.15 7.42253V7.44753L19.1688 7.44905L19.1891 7.45075L19.2094 7.4527L19.2298 7.4549L19.2502 7.45728L19.2705 7.4599L19.2909 7.4627C19.2976 7.46372 19.3044 7.46465 19.3112 7.46575L19.3315 7.46905C19.3384 7.47016 19.3452 7.47134 19.3519 7.47253L19.3723 7.47626L19.3926 7.48024C19.3994 7.4816 19.4062 7.48304 19.4129 7.48448C19.4197 7.48592 19.4266 7.48736 19.4333 7.48897C19.4401 7.4905 19.4469 7.49202 19.4536 7.49372C19.4605 7.49533 19.4672 7.49702 19.474 7.49872C19.4808 7.50041 19.4876 7.50219 19.4943 7.50397C19.5012 7.50575 19.5079 7.50761 19.5147 7.50948C19.5215 7.51134 19.5282 7.51329 19.535 7.51533L19.5554 7.52143C19.5622 7.52355 19.5691 7.52558 19.5757 7.52787C19.5825 7.53007 19.5893 7.53228 19.596 7.53456C19.6029 7.53685 19.6097 7.53922 19.6165 7.54151C19.6233 7.54397 19.6301 7.54643 19.6368 7.54889C19.6436 7.55143 19.6503 7.55389 19.6571 7.55651C19.6639 7.55914 19.6707 7.56185 19.6775 7.56448C19.6844 7.56728 19.6911 7.57007 19.6978 7.57295C19.7046 7.57583 19.7114 7.57872 19.7181 7.58168C19.725 7.58465 19.7318 7.5877 19.7386 7.59075C19.7454 7.59389 19.7521 7.59702 19.7589 7.60024C19.7657 7.60346 19.7724 7.60677 19.7792 7.61016C19.7861 7.61355 19.7929 7.61702 19.7996 7.6205C19.8064 7.62406 19.8132 7.6277 19.8199 7.63134C19.8267 7.63499 19.8335 7.63872 19.8403 7.64253C19.8471 7.64634 19.8539 7.65024 19.8607 7.65422C19.8674 7.65821 19.8743 7.66228 19.881 7.66643C19.8878 7.67066 19.8946 7.67499 19.9013 7.67922C19.9082 7.68363 19.915 7.68812 19.9217 7.69261C19.9285 7.69728 19.9353 7.70194 19.942 7.70668C19.9489 7.71151 19.9556 7.71634 19.9623 7.72134C19.9692 7.72634 19.976 7.73151 19.9827 7.73668C19.9896 7.74194 19.9964 7.74728 20.0031 7.75278C20.01 7.75821 20.0167 7.76389 20.0234 7.76965C20.0303 7.77541 20.037 7.78134 20.0438 7.78736C20.0506 7.79346 20.0574 7.79973 20.0641 7.806C20.071 7.81253 20.0778 7.81914 20.0845 7.82575C20.0913 7.83261 20.0981 7.83956 20.1048 7.8466C20.1117 7.85397 20.1185 7.86134 20.1252 7.8688C20.1322 7.8766 20.1389 7.88456 20.1456 7.89244C20.1524 7.90083 20.1592 7.90922 20.1658 7.91778C20.1728 7.92668 20.1797 7.93567 20.1862 7.94482C20.1932 7.95448 20.1999 7.96439 20.2066 7.97431C20.2135 7.98482 20.2204 7.9955 20.2269 8.00634C20.234 8.01804 20.2407 8.02982 20.2473 8.04185C20.2543 8.05482 20.2611 8.06804 20.2676 8.08151C20.2748 8.09634 20.2816 8.11151 20.2879 8.12685C20.2953 8.14456 20.302 8.16261 20.3083 8.18092C20.316 8.20329 20.3228 8.22609 20.3287 8.24931C20.3373 8.28338 20.3441 8.31838 20.349 8.35431C20.3549 8.39804 20.358 8.44304 20.358 8.48931C20.358 8.53694 20.3549 8.58321 20.349 8.62829C20.3441 8.66541 20.3373 8.70168 20.3287 8.73694C20.3228 8.76109 20.316 8.78482 20.3083 8.80812C20.3021 8.82702 20.2953 8.84558 20.2879 8.86389C20.2816 8.87982 20.2749 8.89558 20.2676 8.91109C20.2611 8.9249 20.2543 8.93855 20.2473 8.95202C20.2407 8.96448 20.234 8.97668 20.2269 8.9888C20.2204 8.99999 20.2135 9.01109 20.2066 9.02202C20.1999 9.03236 20.1932 9.04253 20.1862 9.05262C20.1797 9.06219 20.1728 9.07151 20.1658 9.08066C20.1592 9.08956 20.1524 9.09821 20.1456 9.10685C20.1389 9.11507 20.1322 9.12329 20.1252 9.13134C20.1185 9.13914 20.1117 9.14685 20.1048 9.15439C20.0981 9.16168 20.0913 9.16889 20.0845 9.176C20.0778 9.18295 20.0711 9.18973 20.0641 9.19651C20.0574 9.20304 20.0506 9.20956 20.0438 9.21583C20.037 9.22211 20.0303 9.22821 20.0234 9.23431C20.0167 9.24016 20.01 9.246 20.0031 9.25177C19.9964 9.25736 19.9896 9.26295 19.9827 9.26838C19.976 9.27372 19.9693 9.27905 19.9623 9.28422C19.9556 9.28931 19.9489 9.29439 19.942 9.29939C19.9353 9.30422 19.9285 9.30906 19.9217 9.31389C19.915 9.31855 19.9082 9.32321 19.9013 9.3277C19.8946 9.33219 19.8878 9.3366 19.881 9.34092C19.8743 9.34524 19.8674 9.34939 19.8607 9.35355C19.8539 9.35761 19.8471 9.36168 19.8403 9.36566C19.8335 9.36956 19.8267 9.37346 19.8199 9.37727C19.8132 9.381 19.8064 9.38473 19.7996 9.38838C19.7928 9.39194 19.7861 9.39558 19.7792 9.39905C19.7725 9.40253 19.7656 9.40583 19.7589 9.40922C19.7521 9.41253 19.7454 9.41567 19.7386 9.41897C19.7318 9.42211 19.725 9.42524 19.7181 9.42838C19.7114 9.43143 19.7046 9.43439 19.6978 9.43736C19.6911 9.44024 19.6843 9.44304 19.6775 9.44583C19.6707 9.44863 19.6639 9.45134 19.6571 9.45405C19.6503 9.45677 19.6436 9.45939 19.6368 9.46202C19.6301 9.46448 19.6233 9.46694 19.6165 9.46939C19.6097 9.47185 19.6029 9.47422 19.596 9.47651C19.5893 9.4788 19.5825 9.48117 19.5757 9.48338L19.5554 9.4899C19.5487 9.49202 19.5418 9.49405 19.535 9.49609C19.5282 9.49812 19.5215 9.50016 19.5147 9.50202C19.5079 9.50397 19.5012 9.50583 19.4943 9.5077C19.4876 9.50939 19.4808 9.51126 19.474 9.51295C19.4672 9.51465 19.4605 9.51643 19.4536 9.51804C19.4469 9.51965 19.4401 9.52126 19.4333 9.52278L19.4129 9.52728C19.4062 9.52872 19.3994 9.53024 19.3926 9.5316C19.3858 9.53295 19.379 9.53422 19.3723 9.53549L19.3519 9.53922L19.3315 9.54278C19.3248 9.54388 19.3179 9.54499 19.3112 9.546C19.3044 9.54702 19.2976 9.54812 19.2909 9.54905C19.2841 9.55007 19.2773 9.55092 19.2705 9.55185L19.2502 9.55431C19.2434 9.55516 19.2366 9.55592 19.2298 9.55668C19.2231 9.55736 19.2162 9.55812 19.2094 9.55872L19.1891 9.56066L19.1688 9.56228L19.1484 9.56372L19.128 9.56499L19.1077 9.56592C19.1009 9.56626 19.0942 9.56651 19.0873 9.56677C19.0806 9.56711 19.0738 9.56719 19.067 9.56728L19.0467 9.56778L19.0263 9.56795L19.0167 9.56804H19.0059H18.9856H18.9652H18.9449H18.9246H18.9042H18.8839H18.8635H18.8431H18.8228H18.8024H18.7821H18.7618H18.7413H18.7211H18.7007H18.6803H18.6601H18.6397H18.6193H18.599H18.5786H18.5582H18.538H18.5175H18.4972H18.4769H18.4565H18.4362H18.4158H18.3955H18.3751H18.3547H18.3344H18.3141H18.2937H18.2734H18.253H18.2326H18.2123H18.192H18.1716H18.1513H18.1309H18.1105H18.0903H18.0699H18.0495H18.0292H18.0088H17.9884H17.9681H17.9478H17.9274H17.907H17.8867H17.8664H17.846H17.8257H17.8054H17.785H17.7646H17.7443H17.7239H17.7036H17.6833H17.6629H17.6425H17.6222H17.6018H17.5815H17.5612H17.5408H17.5205H17.5001H17.4797H17.4594H17.4391H17.4186H17.3983H17.378H17.3576H17.3373H17.317H17.2966H17.2762H17.2559H17.2356H17.2152H17.1948H17.1746H17.1541H17.1337H17.1135H17.0931H17.0727H17.0525H17.032H17.0117H16.9914H16.971H16.9507H16.9303H16.9099H16.8896H16.8693H16.8489H16.8286H16.8082H16.7878H16.7675H16.7471H16.7268H16.7065H16.6861H16.6658H16.6454H16.625H16.6048H16.5844H16.564H16.5437H16.5233H16.5029H16.4827H16.4623H16.4419H16.4216H16.4012H16.3809H16.3606H16.3402H16.3199H16.2994H16.2791H16.2588H16.2384H16.2181H16.1978H16.1774H16.157H16.1367H16.1163H16.096H16.0757H16.0552H16.035H16.0146H15.9942H15.9739H15.9536H15.9331H15.9129H15.8925H15.8721H15.8518H15.8315H15.8111H15.7907H15.7468V13.9688H15.7907H15.8111H15.8315H15.8518H15.8721H15.8925H15.9129H15.9331H15.9536H15.9739H15.9942H16.0146H16.035H16.0552H16.0757H16.096H16.1163H16.1367H16.157H16.1774H16.1978H16.2181H16.2384H16.2588H16.2791H16.2994H16.3199H16.3402H16.3606H16.3809H16.4012H16.4216H16.4419H16.4623H16.4827H16.5029H16.5233H16.5437H16.564H16.5844H16.6048H16.625H16.6454H16.6658H16.6861H16.7065H16.7268H16.7471H16.7675H16.7878H16.8082H16.8286H16.8489H16.8693H16.8896H16.9099H16.9303H16.9507H16.971H16.9914H17.0117H17.032H17.0525H17.0727H17.0931H17.1135H17.1337H17.1541H17.1746H17.1948H17.2152H17.2356H17.2559H17.2762H17.2966H17.317H17.3373H17.3576H17.378H17.3983H17.4186H17.4391H17.4594H17.4797H17.5001H17.5205H17.5408H17.5612H17.5815H17.6018H17.6222H17.6425H17.6629H17.6833H17.7036H17.7239H17.7443H17.7646H17.785H17.8054H17.8257H17.846H17.8664H17.8867H17.907H17.9274H17.9478H17.9681H17.9884H18.0088H18.0292H18.0495H18.0699H18.0903H18.1105H18.1309H18.1513H18.1716H18.192H18.2123H18.2326H18.253H18.2734H18.2937H18.3141H18.3344H18.3547H18.3751H18.3955H18.4158H18.4362H18.4565H18.4769H18.4972H18.5175H18.538H18.5582H18.5786H18.599H18.6193H18.6397H18.6601H18.6803H18.7007H18.7211H18.7413H18.7618H18.7821H18.8024H18.8228H18.8389L18.8431 13.9687L18.8635 13.9685C18.8703 13.9684 18.8771 13.9683 18.8839 13.9682L18.9042 13.9676L18.9246 13.9669C18.9313 13.9666 18.9381 13.9664 18.9449 13.966C18.9517 13.9657 18.9584 13.9652 18.9652 13.9648L18.9856 13.9635C18.9924 13.963 18.9992 13.9626 19.0059 13.9621C19.0127 13.9614 19.0195 13.9607 19.0263 13.9602C19.0331 13.9596 19.0399 13.9591 19.0467 13.9583C19.0535 13.9576 19.0602 13.9569 19.067 13.9562C19.0738 13.9554 19.0805 13.9546 19.0873 13.9537C19.0941 13.953 19.101 13.9523 19.1077 13.9513C19.1146 13.9505 19.1213 13.9494 19.128 13.9485L19.1484 13.9456L19.1688 13.9424L19.1891 13.939C19.1958 13.9378 19.2026 13.9368 19.2094 13.9355C19.2163 13.9343 19.223 13.933 19.2298 13.9316L19.2502 13.9276L19.2705 13.9235C19.2773 13.922 19.2841 13.9204 19.2909 13.9189C19.2976 13.9174 19.3044 13.916 19.3112 13.9144L19.3315 13.9094L19.3519 13.9043L19.3723 13.8991C19.379 13.8973 19.3858 13.8953 19.3926 13.8935C19.3994 13.8916 19.4062 13.8897 19.4129 13.8878C19.4197 13.8858 19.4265 13.8837 19.4333 13.8817L19.4536 13.8755C19.4604 13.8734 19.4672 13.8713 19.474 13.8691L19.4943 13.8623C19.5012 13.8601 19.5079 13.8579 19.5147 13.8556C19.5215 13.8532 19.5282 13.8507 19.535 13.8483C19.5418 13.8458 19.5486 13.8434 19.5554 13.8408L19.5757 13.8332C19.5825 13.8307 19.5893 13.828 19.596 13.8253C19.6029 13.8226 19.6097 13.8201 19.6165 13.8173C19.6233 13.8145 19.6301 13.8116 19.6368 13.8087C19.6436 13.8059 19.6503 13.8032 19.6571 13.8002C19.6639 13.7973 19.6707 13.7942 19.6775 13.7912C19.6843 13.7881 19.6911 13.7852 19.6978 13.7821L19.7181 13.7727L19.7386 13.763C19.7454 13.7596 19.7521 13.7563 19.7589 13.753C19.7656 13.7496 19.7724 13.7462 19.7792 13.7426C19.786 13.7392 19.7929 13.7358 19.7996 13.7323C19.8064 13.7287 19.8131 13.7249 19.8199 13.7213C19.8267 13.7176 19.8335 13.7141 19.8403 13.7103C19.8471 13.7066 19.8539 13.7027 19.8607 13.6988C19.8674 13.6949 19.8742 13.6911 19.881 13.6871C19.8878 13.6831 19.8945 13.6791 19.9013 13.6751L19.9217 13.6628C19.9285 13.6585 19.9353 13.6544 19.942 13.6502C19.9489 13.6458 19.9556 13.6415 19.9623 13.6371C19.9692 13.6327 19.976 13.6283 19.9827 13.6239C19.9895 13.6193 19.9963 13.6147 20.0031 13.6102C20.0099 13.6055 20.0167 13.6009 20.0234 13.5962C20.0303 13.5914 20.037 13.5866 20.0438 13.5818C20.0505 13.5769 20.0574 13.5721 20.0641 13.5672C20.071 13.5622 20.0777 13.557 20.0845 13.5519C20.0913 13.5469 20.098 13.5419 20.1048 13.5366C20.1116 13.5313 20.1184 13.5259 20.1252 13.5206C20.132 13.5152 20.1389 13.5099 20.1456 13.5045C20.1523 13.499 20.1591 13.4933 20.1658 13.4877C20.1726 13.4821 20.1795 13.4764 20.1862 13.4707C20.1931 13.4648 20.1999 13.459 20.2066 13.4531C20.2133 13.4471 20.2201 13.4411 20.2269 13.4351C20.2337 13.429 20.2405 13.4228 20.2473 13.4167C20.2541 13.4103 20.2609 13.404 20.2676 13.3976C20.2744 13.3912 20.2812 13.3847 20.2879 13.3783C20.2948 13.3717 20.3015 13.3649 20.3083 13.3581C20.3151 13.3514 20.3219 13.3447 20.3287 13.3379C20.3355 13.3308 20.3422 13.3236 20.349 13.3166C20.3558 13.3094 20.3627 13.3023 20.3694 13.295C20.3762 13.2876 20.3829 13.2802 20.3897 13.2726C20.3966 13.265 20.4033 13.2574 20.4101 13.2496C20.4169 13.2419 20.4237 13.2341 20.4304 13.2262C20.4373 13.2181 20.444 13.21 20.4507 13.2017C20.4576 13.1935 20.4644 13.1852 20.4711 13.1768C20.478 13.1682 20.4847 13.1596 20.4915 13.1509C20.4983 13.1421 20.505 13.1331 20.5118 13.1241C20.5187 13.1151 20.5255 13.106 20.5322 13.0968C20.539 13.0873 20.5458 13.0778 20.5525 13.0681C20.5593 13.0584 20.5661 13.0485 20.5728 13.0385C20.5797 13.0285 20.5866 13.0183 20.5932 13.008C20.6 12.9975 20.6068 12.987 20.6136 12.9764C20.6204 12.9653 20.6272 12.9543 20.6339 12.9431C20.6408 12.9317 20.6476 12.9202 20.6543 12.9087C20.6611 12.8968 20.6679 12.8848 20.6746 12.8728C20.6815 12.8603 20.6883 12.8479 20.695 12.8353C20.7019 12.8223 20.7087 12.8091 20.7154 12.7958C20.7222 12.782 20.7289 12.768 20.7356 12.7541C20.7426 12.7395 20.7494 12.7248 20.756 12.71C20.763 12.6944 20.7697 12.6788 20.7764 12.6631C20.7833 12.6465 20.7901 12.6298 20.7966 12.613C20.8037 12.5952 20.8105 12.5771 20.8171 12.5591C20.8241 12.5396 20.8309 12.52 20.8374 12.5003C20.8446 12.4785 20.8513 12.4566 20.8578 12.4346C20.8649 12.4102 20.8718 12.3857 20.8781 12.361C20.8855 12.3323 20.8922 12.3034 20.8985 12.2743C20.9061 12.2385 20.9129 12.2024 20.9188 12.166C20.9276 12.1118 20.9345 12.0569 20.9391 12.0014C20.9446 11.9385 20.9475 11.8746 20.9475 11.8102L20.9475 1.01702H20.9391ZM17.8869 6.06219H17.8666H17.8462H17.8259H17.8055H17.7852H17.7648H17.7445H17.7242H17.7038H17.6835H17.6632H17.6427H17.6224H17.6021H17.5817H17.5613H17.5411H17.5207H17.5003H17.4801H17.4597H17.4393H17.419H17.3986H17.3783H17.358H17.3376H17.3173H17.2969H17.2765H17.2562H17.2359H17.2155H17.1952H17.1748H17.1545H17.1342H17.1138H17.0934H17.0731H17.0527H17.0324H17.0121H16.9917H16.9714H16.9511H16.9307H16.9103H16.89H16.8696H16.8493H16.829H16.8086H16.7883H16.7777V7.11312H16.7883H16.8086H16.829H16.8493H16.8696H16.89H16.9103H16.9307H16.9511H16.9714H16.9917H17.0121H17.0324H17.0527H17.0731H17.0934H17.1138H17.1342H17.1545H17.1748H17.1952H17.2155H17.2359H17.2562H17.2765H17.2969H17.3173H17.3376H17.358H17.3783H17.3986H17.419H17.4393H17.4597H17.4801H17.5003H17.5207H17.5411H17.5613H17.5817H17.6021H17.6224H17.6427H17.6632H17.6835H17.7038H17.7242H17.7445H17.7648H17.7852H17.8055H17.8259H17.8462H17.8666H17.8837H17.8869C17.8933 7.11304 17.9002 7.11287 17.9072 7.11261C17.9139 7.11228 17.9207 7.11194 17.9276 7.11151C17.9345 7.11109 17.9413 7.11058 17.948 7.10999C17.955 7.10939 17.9619 7.10872 17.9683 7.10804C17.9757 7.10728 17.9827 7.10651 17.9886 7.10567C17.9948 7.1049 18.0001 7.10414 18.004 7.10338L18.0091 7.10244C18.0158 7.10126 18.0225 7.0999 18.0293 7.09838C18.0361 7.09685 18.0429 7.09524 18.0497 7.09338C18.0565 7.09151 18.0633 7.08965 18.0701 7.08753C18.0768 7.0855 18.0836 7.08312 18.0903 7.08083C18.0972 7.07838 18.104 7.07575 18.1107 7.07304C18.1176 7.07024 18.1244 7.06736 18.1311 7.06431C18.1379 7.06117 18.1446 7.05795 18.1513 7.05448C18.1583 7.05109 18.1651 7.04736 18.1717 7.04355C18.1787 7.03965 18.1854 7.03567 18.1921 7.03134C18.199 7.02711 18.2057 7.02261 18.2124 7.01795C18.2193 7.01304 18.2261 7.00812 18.2328 7.00295C18.2397 6.99753 18.2465 6.99202 18.2532 6.98634C18.2601 6.98024 18.2669 6.97406 18.2735 6.9677C18.2805 6.961 18.2873 6.95406 18.2938 6.94685C18.3008 6.93931 18.3076 6.93143 18.3142 6.92338C18.3212 6.91465 18.328 6.90575 18.3345 6.89651C18.3416 6.88643 18.3484 6.87592 18.3548 6.86516C18.3622 6.85304 18.3689 6.84058 18.3752 6.82761C18.3827 6.81219 18.3896 6.79626 18.3956 6.77965C18.4039 6.75702 18.4107 6.73346 18.4159 6.70889C18.4241 6.67075 18.4285 6.63024 18.4285 6.5877C18.4285 6.54507 18.4241 6.50456 18.4159 6.46634C18.4107 6.44177 18.4039 6.41812 18.3956 6.39558C18.3896 6.37906 18.3827 6.36304 18.3752 6.34761C18.3689 6.33473 18.3622 6.32211 18.3548 6.30999C18.3484 6.29922 18.3416 6.2888 18.3345 6.27872C18.328 6.26948 18.3212 6.2605 18.3142 6.25177C18.3076 6.24372 18.3008 6.23583 18.2938 6.22829C18.2873 6.22117 18.2805 6.21422 18.2735 6.20753C18.2669 6.20109 18.2601 6.1949 18.2532 6.18889C18.2465 6.18312 18.2397 6.17761 18.2328 6.17228C18.2261 6.16711 18.2193 6.16202 18.2124 6.15719C18.2057 6.15261 18.199 6.14804 18.1921 6.14372C18.1854 6.13956 18.1787 6.13541 18.1717 6.13151C18.1651 6.1277 18.1583 6.12405 18.1513 6.12058C18.1446 6.11719 18.1379 6.11389 18.1311 6.11075C18.1244 6.1077 18.1176 6.10473 18.1107 6.10202C18.104 6.09923 18.0972 6.09668 18.0903 6.09422C18.0836 6.09177 18.0768 6.08948 18.0701 6.08736C18.0633 6.08533 18.0565 6.08329 18.0497 6.08151C18.0429 6.07965 18.0361 6.07795 18.0293 6.07643C18.0225 6.0749 18.0158 6.07346 18.0091 6.07228L18.004 6.07134C18.0001 6.07075 17.9948 6.07007 17.9886 6.06939C17.9827 6.06872 17.9757 6.06795 17.9683 6.06719C17.9619 6.06651 17.955 6.06583 17.948 6.06524C17.9413 6.06473 17.9345 6.06414 17.9276 6.0638C17.9207 6.06338 17.9139 6.06287 17.9072 6.0627L17.8955 6.06219H17.8869ZM17.9885 7.75524H17.9682H17.9479H17.9274H17.9071H17.8868H17.8664H17.8461H17.8258H17.8054H17.7851H17.7647H17.7444H17.724H17.7036H17.6834H17.663H17.6426H17.6223H17.602H17.5815H17.5613H17.5409H17.5205H17.5003H17.4799H17.4595H17.4392H17.4188H17.3985H17.3782H17.3578H17.3374H17.3171H17.2968H17.2764H17.256H17.2357H17.2154H17.195H17.1747H17.1544H17.134H17.1136H17.0933H17.0729H17.0525H17.0323H17.0119H16.9915H16.9713H16.9509H16.9305H16.9102H16.8898H16.8695H16.8492H16.8288H16.8085H16.7881H16.7776V8.89405H16.7881H16.8085H16.8288H16.8492H16.8695H16.8898H16.9102H16.9305H16.9509H16.9713H16.9915H17.0119H17.0323H17.0525H17.0729H17.0933H17.1136H17.134H17.1544H17.1747H17.195H17.2154H17.2357H17.256H17.2764H17.2968H17.3171H17.3374H17.3578H17.3782H17.3985H17.4188H17.4392H17.4595H17.4799H17.5003H17.5205H17.5409H17.5613H17.5815H17.602H17.6223H17.6426H17.663H17.6834H17.7036H17.724H17.7444H17.7647H17.7851H17.8054H17.8258H17.8461H17.8664H17.8868H17.9071H17.9274H17.9479H17.9682H17.9885H17.998L18.0089 8.89397C18.0151 8.8938 18.022 8.89355 18.0292 8.89312C18.0358 8.89278 18.0426 8.89236 18.0495 8.89185C18.0562 8.89134 18.0631 8.89075 18.0699 8.89016C18.0768 8.88948 18.0836 8.8888 18.0903 8.88804C18.0972 8.88728 18.1041 8.88643 18.1106 8.8855C18.1178 8.88456 18.1247 8.88346 18.131 8.88236C18.1355 8.88151 18.1395 8.88066 18.1432 8.87982L18.1513 8.87795C18.158 8.87626 18.1648 8.87465 18.1716 8.8727C18.1785 8.87083 18.1853 8.8688 18.192 8.8666C18.1989 8.86439 18.2056 8.86211 18.2123 8.85965C18.2191 8.85719 18.2259 8.85448 18.2326 8.85168C18.2395 8.84889 18.2463 8.84583 18.253 8.8427C18.2599 8.83956 18.2666 8.83617 18.2734 8.83278C18.2802 8.82914 18.287 8.8255 18.2937 8.8216C18.3006 8.8177 18.3074 8.81363 18.3141 8.80931C18.3209 8.80499 18.3277 8.8005 18.3344 8.79584C18.3413 8.791 18.3481 8.78609 18.3547 8.78092C18.3617 8.77567 18.3685 8.77007 18.3751 8.76439C18.382 8.75855 18.3888 8.75253 18.3954 8.74626C18.4024 8.73973 18.4092 8.73304 18.4158 8.72609C18.4228 8.71889 18.4295 8.71143 18.4362 8.70372C18.4432 8.6955 18.45 8.68711 18.4565 8.67855C18.4635 8.66922 18.4703 8.65965 18.4769 8.6499C18.484 8.63923 18.4908 8.62829 18.4972 8.61694C18.5044 8.60422 18.5112 8.59109 18.5175 8.5777C18.525 8.56168 18.5318 8.54533 18.5379 8.52838C18.5461 8.50567 18.5529 8.48202 18.5582 8.4577C18.5675 8.41558 18.5726 8.37109 18.5726 8.32465C18.5726 8.27838 18.5675 8.23414 18.5582 8.19202C18.5529 8.1677 18.5461 8.14422 18.5379 8.1216C18.5318 8.10473 18.5251 8.08838 18.5175 8.07236C18.5112 8.05897 18.5044 8.04583 18.4972 8.03321C18.4908 8.02194 18.4839 8.01092 18.4769 8.00016C18.4703 7.99041 18.4635 7.98083 18.4565 7.97168C18.45 7.96304 18.4432 7.95465 18.4362 7.94651C18.4295 7.9388 18.4228 7.93126 18.4158 7.92397C18.4092 7.91711 18.4025 7.91041 18.3954 7.90389C18.3888 7.89761 18.382 7.89151 18.3751 7.88558C18.3685 7.8799 18.3617 7.87439 18.3547 7.86905C18.3481 7.86397 18.3413 7.85889 18.3344 7.85414C18.3277 7.84939 18.3209 7.8449 18.3141 7.8405C18.3074 7.83626 18.3006 7.83211 18.2937 7.82821C18.2869 7.82431 18.2802 7.82058 18.2734 7.81702C18.2666 7.81355 18.2599 7.81016 18.253 7.80694C18.2463 7.80389 18.2395 7.80083 18.2326 7.79787C18.2259 7.79507 18.2191 7.79244 18.2123 7.7899C18.2056 7.78736 18.1989 7.78499 18.192 7.78278C18.1853 7.78058 18.1785 7.77855 18.1716 7.7766C18.1648 7.77473 18.158 7.77295 18.1513 7.77126L18.1432 7.76948C18.1395 7.76863 18.1355 7.76787 18.131 7.76711C18.1247 7.76592 18.1178 7.76499 18.1106 7.76397C18.1041 7.76304 18.0972 7.76219 18.0903 7.76134C18.0836 7.76066 18.0768 7.7599 18.0699 7.75931C18.0631 7.75863 18.0562 7.75812 18.0495 7.75753C18.0426 7.75702 18.0358 7.7566 18.0292 7.75617C18.022 7.75583 18.0151 7.7555 18.0089 7.75533L18.0054 7.75524H17.9885Z" fill="#4DAB3C"/>
<path fill-rule="evenodd" clip-rule="evenodd" d="M9.25905 1.01694H9.23877H9.21841H9.19805H9.17785H9.15749H9.13713H9.11685H9.09657H9.07621H9.05593H9.03557H9.01529H8.99501H8.97465H8.95437H8.93401H8.91373H8.89336H8.87309H8.85281H8.83244H8.81208H8.79189H8.77152H8.75116H8.73097H8.7106H8.69024H8.66996H8.64968H8.62932H8.60904H8.58868H8.5684H8.54812H8.52776H8.5074H8.4872H8.46684H8.44648H8.42628H8.40592H8.38556H8.36528H8.345H8.32464H8.30428H8.284H8.26372H8.24336H8.22308H8.20272H8.18244H8.16216H8.1418H8.12152H8.10116H8.08088H8.06052H8.04024H8.01996H7.9996H7.97923H7.95904H7.93868H7.91831H7.89803H7.87776H7.85739H7.83711H7.81684H7.79647H7.77619H7.75583H7.73555H7.71519H7.69491H7.67455H7.65427H7.63399H7.61363H7.59335H7.57307H7.55271H7.53235H7.51215H7.49179H7.47143H7.45115H7.43087H7.41051H7.39015H7.36987H7.34959H7.32923H7.30895H7.28867H7.26831H7.24803H7.22767H7.20739H7.18711H7.16675H7.14647H7.12611H7.10583H7.08546H7.06519H7.04491H7.02454H7.00418H6.98399H6.96362H6.94326H6.92298H6.9027H6.88234H6.86206H6.84178H6.82142H6.80114H6.78078H6.7605H6.74022H6.71986H6.6995H6.67922H6.65894H6.63858H6.61822H6.59802H6.57766H6.5573H6.5371H6.51674H6.49638H6.4761H6.45582H6.43546H6.41518H6.39482H6.37454H6.35418H6.3339H6.31354H6.29326H6.27298H6.25262H6.23234H6.21206H6.1917H6.18036L6.17133 1.01702C6.16463 1.01711 6.15784 1.01719 6.15105 1.01728C6.14435 1.01736 6.13748 1.01736 6.13078 1.01753C6.12399 1.0177 6.1172 1.01804 6.11041 1.01829L6.09005 1.01914C6.08335 1.01948 6.07656 1.01965 6.06986 1.02007C6.06307 1.02041 6.05628 1.02101 6.04949 1.02134C6.04271 1.02177 6.03592 1.02219 6.02913 1.0227C6.02234 1.02321 6.01564 1.0238 6.00885 1.02431L5.98857 1.02617C5.98179 1.02685 5.975 1.02736 5.96821 1.02804C5.96142 1.02872 5.95472 1.02965 5.94793 1.03041L5.92765 1.03278L5.90729 1.03541C5.9005 1.03634 5.89372 1.03736 5.88701 1.03838C5.88023 1.03931 5.87344 1.04016 5.86665 1.04126C5.85995 1.04236 5.85316 1.04346 5.84637 1.04465L5.82609 1.04804C5.81931 1.04931 5.81252 1.05041 5.80573 1.0516C5.79894 1.05295 5.79216 1.05431 5.78537 1.05558C5.77866 1.05694 5.77188 1.05821 5.76517 1.05956C5.7583 1.06101 5.7516 1.06253 5.74481 1.06397L5.72445 1.06846C5.71766 1.06999 5.71087 1.07151 5.70417 1.07312C5.69738 1.07473 5.6906 1.0766 5.68389 1.07829C5.6771 1.0799 5.67032 1.08151 5.66353 1.08329C5.65674 1.08507 5.64995 1.08694 5.64325 1.0888L5.62297 1.09439C5.61618 1.09634 5.6094 1.09812 5.60261 1.10016C5.59582 1.10211 5.58903 1.10423 5.58225 1.10634C5.57546 1.10838 5.56867 1.11041 5.56197 1.11253C5.55518 1.11473 5.54848 1.11694 5.54169 1.11914L5.52133 1.12592L5.50105 1.13287C5.49418 1.13524 5.48747 1.1377 5.48069 1.14016C5.47398 1.14262 5.46719 1.14499 5.46041 1.14753C5.45362 1.14999 5.44692 1.15278 5.44013 1.15533L5.41977 1.16329L5.39949 1.17151L5.37921 1.18007C5.37242 1.18287 5.36555 1.18575 5.35885 1.18872C5.35206 1.19168 5.34527 1.19473 5.33848 1.19778C5.3317 1.20084 5.32499 1.2038 5.3182 1.20694C5.31142 1.21007 5.30471 1.21329 5.29793 1.21651C5.29114 1.21982 5.28435 1.22304 5.27756 1.22626C5.27078 1.22956 5.26399 1.23304 5.25729 1.23634L5.23701 1.24677C5.23014 1.25024 5.22335 1.25372 5.21664 1.25736C5.20986 1.26092 5.20307 1.26456 5.19628 1.26829C5.18949 1.27202 5.18279 1.27558 5.176 1.27939C5.16922 1.28321 5.16251 1.28711 5.15572 1.291C5.14894 1.2949 5.14207 1.29863 5.13536 1.30262C5.12857 1.30668 5.12179 1.31084 5.115 1.3149C5.10821 1.31897 5.10151 1.32304 5.0948 1.32719C5.08793 1.33143 5.08123 1.33575 5.07444 1.34007C5.06766 1.34439 5.06087 1.34863 5.05408 1.35304C5.04729 1.35745 5.04051 1.36202 5.0338 1.3666C5.02701 1.37109 5.02031 1.37567 5.01352 1.38024C5.00674 1.38482 4.99995 1.38956 4.99316 1.39431C4.98637 1.39914 4.97959 1.40397 4.97288 1.40872C4.96601 1.41372 4.95931 1.41863 4.9526 1.42363L4.93224 1.4388C4.92545 1.44389 4.91867 1.44914 4.91196 1.45431C4.90517 1.45965 4.8983 1.46499 4.8916 1.47033C4.88481 1.47575 4.87811 1.48117 4.87132 1.48677C4.86453 1.49228 4.85775 1.49787 4.85104 1.50346C4.84417 1.50923 4.83738 1.51499 4.83068 1.52075C4.82389 1.5266 4.81711 1.53245 4.81032 1.53829C4.80353 1.54431 4.79683 1.55041 4.79012 1.55651C4.78333 1.56262 4.77646 1.56872 4.76976 1.57499C4.76289 1.58134 4.75619 1.58778 4.7494 1.59423C4.74261 1.60075 4.73574 1.60711 4.72912 1.61363C4.72233 1.62033 4.71563 1.62719 4.70884 1.63397C4.70205 1.64075 4.69518 1.64762 4.68848 1.65448C4.68161 1.6616 4.6749 1.66863 4.6682 1.67584C4.66133 1.68312 4.65454 1.69033 4.64792 1.69762C4.64105 1.70507 4.63426 1.71245 4.62756 1.71999C4.62069 1.72762 4.61398 1.73541 4.6072 1.74321C4.60041 1.751 4.59362 1.75889 4.58692 1.76685C4.58013 1.77499 4.57334 1.78321 4.56664 1.79143C4.55977 1.79982 4.55298 1.80821 4.54628 1.81668C4.53949 1.82533 4.53262 1.83389 4.526 1.84253C4.51904 1.85151 4.51234 1.86067 4.50564 1.86965C4.49885 1.87889 4.49206 1.88812 4.48536 1.89745C4.47857 1.90694 4.4717 1.91643 4.46508 1.926C4.45812 1.93592 4.45142 1.94592 4.44472 1.956C4.43785 1.96617 4.43106 1.9766 4.42435 1.98694C4.41765 1.99745 4.41078 2.00812 4.40416 2.0188C4.3972 2.0299 4.39042 2.04101 4.3838 2.05219C4.37684 2.06372 4.37014 2.07541 4.36343 2.08719C4.35656 2.09923 4.34986 2.11134 4.34315 2.12355C4.33628 2.13617 4.3295 2.14889 4.32288 2.1616C4.31592 2.17482 4.30914 2.18812 4.30251 2.20151C4.29564 2.2155 4.28877 2.22948 4.28215 2.24363C4.27536 2.25838 4.26849 2.27329 4.26196 2.28821C4.25492 2.30397 4.24822 2.31982 4.24159 2.33584C4.23456 2.35278 4.22777 2.36973 4.22123 2.38694C4.21428 2.40524 4.20757 2.42372 4.20095 2.44228C4.19392 2.46236 4.18713 2.48253 4.18067 2.50295C4.17355 2.52507 4.16677 2.54745 4.16031 2.56999C4.15319 2.59524 4.14632 2.62067 4.14003 2.64634C4.13267 2.67626 4.1258 2.70643 4.11967 2.73685C4.09111 2.87855 4.07605 3.02533 4.07605 3.17575V8.50685C4.09062 8.51397 4.1051 8.52117 4.11967 8.52829V8.52821V8.52829L4.14003 8.53812L4.16031 8.54778L4.18067 8.55745L4.20095 8.56702L4.22123 8.57651L4.24159 8.58592L4.26196 8.59516L4.28215 8.60439L4.30251 8.61346L4.32288 8.62245L4.34315 8.63134L4.36343 8.64024L4.3838 8.64897L4.40416 8.65753L4.42435 8.66609L4.44472 8.67456L4.46508 8.68287L4.48536 8.69109L4.50564 8.69922L4.526 8.70728L4.54628 8.71524L4.56664 8.72304L4.58692 8.73075L4.6072 8.73846L4.62756 8.74592L4.64792 8.75346L4.6682 8.76075L4.68848 8.76787L4.70884 8.77507L4.72912 8.78211L4.7494 8.78906L4.76976 8.79584L4.79012 8.80245L4.81032 8.80906L4.83068 8.81558L4.85104 8.82194L4.87132 8.82821L4.8916 8.83431L4.91196 8.84041L4.93224 8.84634L4.9526 8.85219L4.97288 8.85795L4.99316 8.86346L5.01352 8.86897L5.0338 8.87439L5.05408 8.87956L5.07444 8.88473L5.0948 8.88982L5.115 8.89473L5.13536 8.89948L5.15572 8.90423L5.176 8.9088L5.19628 8.91321L5.21664 8.91753L5.23701 8.92177L5.25729 8.92583L5.27756 8.92982L5.29793 8.93372L5.3182 8.93745L5.33848 8.941L5.35885 8.94456L5.37921 8.94787L5.39949 8.95117L5.41977 8.95431L5.44013 8.95728L5.46041 8.96016L5.48069 8.96295L5.50105 8.96558L5.52133 8.96812L5.54169 8.9705L5.56197 8.9727L5.58225 8.97482L5.60261 8.97685L5.62297 8.97872L5.64325 8.9805L5.66353 8.98211L5.68389 8.98355L5.70417 8.9849L5.72445 8.98609L5.74481 8.98719L5.76517 8.98821L5.78537 8.98906L5.80573 8.98973L5.82609 8.99024L5.84637 8.99058L5.86665 8.99092L5.88701 8.99109L5.89968 8.99117L5.90729 8.99109C5.91416 8.991 5.92095 8.991 5.92765 8.99084L5.94793 8.99041C5.95472 8.99016 5.96151 8.98999 5.96821 8.98973C5.97508 8.98948 5.98179 8.98906 5.98857 8.98872C5.99536 8.98838 6.00215 8.98804 6.00885 8.98761C6.01564 8.98711 6.02243 8.98668 6.02913 8.98609C6.036 8.98558 6.04271 8.9849 6.04949 8.98431C6.05636 8.98372 6.06315 8.98304 6.06986 8.98228L6.09005 8.97999C6.09692 8.97922 6.10371 8.97838 6.11041 8.97745C6.11728 8.97651 6.12407 8.97558 6.13078 8.97456L6.15105 8.97143C6.15784 8.97024 6.16463 8.96906 6.17133 8.96778C6.1782 8.9666 6.18499 8.96541 6.1917 8.96406C6.19857 8.96278 6.20527 8.96134 6.21206 8.9599C6.21884 8.95846 6.22563 8.95702 6.23234 8.95541C6.23912 8.95389 6.24591 8.95228 6.25262 8.95058C6.2594 8.94889 6.26619 8.94719 6.27298 8.9455C6.27976 8.94363 6.28655 8.94177 6.29326 8.93982C6.30013 8.93795 6.30691 8.93592 6.31354 8.93389C6.32032 8.93185 6.32719 8.92973 6.3339 8.92762C6.34068 8.92541 6.34747 8.92312 6.35418 8.92084C6.36105 8.91855 6.36783 8.91609 6.37454 8.91363C6.38133 8.91117 6.38803 8.90863 6.39482 8.906C6.4016 8.90338 6.40839 8.90067 6.41518 8.89795C6.42197 8.89524 6.42875 8.89236 6.43546 8.88948C6.44233 8.88651 6.44903 8.88355 6.45582 8.88041C6.46261 8.87728 6.46931 8.87406 6.4761 8.87084C6.48289 8.86753 6.48967 8.86414 6.49638 8.86075C6.50325 8.85719 6.51004 8.85372 6.51674 8.85007C6.52361 8.84643 6.53031 8.84262 6.5371 8.8388C6.54381 8.83499 6.55059 8.831 6.5573 8.82702C6.56417 8.82287 6.57096 8.81872 6.57766 8.81448C6.58453 8.81007 6.59132 8.80567 6.59802 8.80117C6.60489 8.7966 6.6116 8.79194 6.61822 8.78711C6.62509 8.78236 6.63188 8.77736 6.63858 8.77236C6.64545 8.76719 6.65224 8.76202 6.65894 8.75668C6.66581 8.75126 6.6726 8.74584 6.6793 8.74016C6.68609 8.73439 6.69288 8.72855 6.6995 8.7227C6.70637 8.71651 6.71316 8.71041 6.71986 8.70406C6.72673 8.69762 6.73352 8.69092 6.74022 8.68431C6.74709 8.67736 6.7538 8.67024 6.7605 8.66321C6.76737 8.65575 6.77416 8.64829 6.78078 8.64067C6.78773 8.63287 6.79452 8.62482 6.80114 8.61677C6.80801 8.60829 6.81488 8.59973 6.82142 8.591C6.82838 8.58185 6.83508 8.57253 6.84178 8.56312C6.84865 8.55329 6.85544 8.54321 6.86206 8.53304C6.8691 8.52228 6.8758 8.51126 6.88234 8.50016C6.88938 8.48829 6.89617 8.47634 6.9027 8.46414C6.90974 8.45083 6.91644 8.43745 6.92298 8.4238C6.9301 8.40872 6.93689 8.39355 6.94326 8.37812C6.95055 8.36084 6.95725 8.34329 6.96362 8.3255C6.97099 8.30448 6.97778 8.28321 6.98399 8.26151C6.99168 8.23431 6.99847 8.2066 7.00418 8.17838C7.01362 8.1327 7.02041 8.08575 7.02454 8.03753C7.02786 7.99973 7.02951 7.96109 7.02951 7.92194V5.41736H7.04491H7.06519H7.08546H7.10583H7.12611H7.14647H7.16675H7.18711H7.20739H7.22767H7.24803H7.26831H7.28867H7.30895H7.32923H7.34959H7.36987H7.39015H7.41051H7.43087H7.45115H7.47143H7.49179H7.51215H7.53235H7.55271H7.57307H7.59335H7.61363H7.63399H7.65427H7.67455H7.69491H7.71519H7.73555H7.75583H7.77619H7.79647H7.81684H7.83711H7.85739H7.87776H7.89803H7.91831H7.93868H7.95904H7.97923H7.9996H8.01996H8.04024H8.06052H8.08088H8.10116H8.12152H8.1418H8.16216H8.18244H8.20272H8.22308H8.24336H8.26372H8.284H8.30428H8.32464H8.345H8.36528H8.38556H8.40592H8.42628H8.44648H8.46684H8.4872H8.5074H8.52776H8.54812H8.5684H8.58868H8.60904H8.62932H8.64968H8.66996H8.69024H8.7106H8.73097H8.75116H8.77152H8.79189H8.81208H8.83244H8.84263V7.92194C8.84263 7.99465 8.83931 8.06626 8.83244 8.13668C8.82756 8.18719 8.82086 8.23702 8.81208 8.28592C8.80629 8.31889 8.7995 8.35151 8.79189 8.38363C8.78568 8.40965 8.77889 8.43533 8.77152 8.46084C8.76515 8.48261 8.75845 8.50414 8.75116 8.52558C8.74487 8.54439 8.738 8.56312 8.73097 8.58168C8.72443 8.59846 8.71764 8.61507 8.7106 8.6316C8.70415 8.64677 8.69736 8.66194 8.69024 8.67694C8.68379 8.69084 8.677 8.70465 8.66996 8.71846C8.66342 8.73126 8.65664 8.74406 8.64968 8.75668C8.64306 8.76863 8.63628 8.7805 8.62932 8.79228C8.62278 8.80346 8.616 8.81448 8.60904 8.8255C8.60242 8.83592 8.59563 8.84643 8.58868 8.85668C8.58206 8.8666 8.57527 8.87643 8.5684 8.88617C8.56178 8.89558 8.55508 8.90499 8.54812 8.91431C8.5415 8.92312 8.53463 8.93194 8.52776 8.94058C8.52114 8.94906 8.51427 8.95736 8.5074 8.96567C8.50078 8.9738 8.49407 8.98177 8.4872 8.98973C8.48042 8.99745 8.47379 9.00516 8.46684 9.01287C8.46022 9.02016 8.45335 9.02736 8.44648 9.03456C8.43986 9.04168 8.43307 9.04863 8.42628 9.05567C8.4195 9.06245 8.41279 9.06923 8.40592 9.076C8.3993 9.08245 8.39243 9.08889 8.38556 9.09516C8.37886 9.10151 8.37215 9.10787 8.36528 9.11414C8.35858 9.12007 8.35171 9.126 8.345 9.13194C8.3383 9.13778 8.33151 9.14363 8.32464 9.14931C8.31794 9.15499 8.31115 9.16058 8.30428 9.16609C8.29766 9.17151 8.29079 9.17685 8.284 9.18219C8.27721 9.18745 8.27051 9.1927 8.26372 9.19804C8.25702 9.20304 8.25023 9.20795 8.24336 9.21295C8.23665 9.21795 8.22995 9.22287 8.22308 9.22778C8.21637 9.23245 8.2095 9.23711 8.20272 9.24177C8.19601 9.24643 8.18931 9.25109 8.18244 9.25567C8.17582 9.26007 8.16895 9.26448 8.16216 9.26889C8.15537 9.27321 8.14867 9.27753 8.1418 9.28185C8.13509 9.28601 8.1283 9.29016 8.12152 9.29422C8.11481 9.29838 8.10803 9.30245 8.10116 9.30643C8.09445 9.31041 8.08775 9.31439 8.08088 9.31829C8.07417 9.32211 8.06739 9.32592 8.06052 9.32965C8.05381 9.33346 8.04711 9.33719 8.04024 9.34092C8.03361 9.34448 8.02674 9.34804 8.01996 9.3516C8.01317 9.35516 8.00647 9.3588 7.9996 9.36228C7.99297 9.36575 7.98602 9.36897 7.97923 9.37236C7.97253 9.37575 7.96582 9.37906 7.95904 9.38245L7.93868 9.39202L7.91831 9.40143C7.91153 9.40456 7.9049 9.40778 7.89803 9.41083C7.89141 9.4138 7.88454 9.4166 7.87776 9.41948L7.85739 9.42821L7.83711 9.43668C7.83041 9.43939 7.82362 9.44219 7.81684 9.44482C7.81005 9.44753 7.80334 9.45033 7.79647 9.45295C7.78977 9.45558 7.7829 9.45812 7.77619 9.46067L7.75583 9.46821C7.74905 9.47075 7.74234 9.47338 7.73555 9.47575C7.72893 9.47821 7.72198 9.4805 7.71519 9.48287L7.69491 9.4899L7.67455 9.49685C7.66785 9.49906 7.66106 9.50117 7.65427 9.50329L7.63399 9.5099L7.61363 9.51617C7.60693 9.51829 7.60006 9.52024 7.59335 9.52227L7.57307 9.52829C7.56629 9.53033 7.55958 9.53228 7.55271 9.53422C7.54601 9.53609 7.53914 9.53795 7.53235 9.53973L7.51215 9.54533C7.50537 9.54719 7.49866 9.54897 7.49179 9.55083C7.48509 9.55253 7.47822 9.55422 7.47143 9.55592L7.45115 9.56109C7.44436 9.5627 7.43766 9.56448 7.43087 9.56609C7.42417 9.5677 7.4173 9.56922 7.41051 9.57083L7.39015 9.5755C7.38336 9.57711 7.37674 9.57863 7.36987 9.58016L7.34959 9.58456L7.32923 9.5888C7.32244 9.59016 7.31574 9.59168 7.30895 9.59312L7.28867 9.59711L7.26831 9.601L7.24803 9.6049C7.24116 9.60617 7.23454 9.60761 7.22767 9.6088C7.22096 9.60999 7.21417 9.61109 7.20739 9.61228L7.18711 9.61583C7.18024 9.61694 7.17362 9.61821 7.16675 9.61922L7.14647 9.62261L7.12611 9.62575L7.10583 9.62889C7.09904 9.62982 7.09233 9.63101 7.08546 9.63202L7.06519 9.63482L7.04491 9.63753L7.02454 9.64041L7.00418 9.64304L6.98399 9.6455L6.96362 9.64804L6.94326 9.65041L6.92298 9.6527L6.9027 9.6549L6.88234 9.65694L6.86206 9.65905L6.84178 9.661L6.82142 9.66278L6.80114 9.66465L6.78078 9.66643L6.7605 9.66804L6.74022 9.66956L6.71986 9.671L6.6995 9.67253L6.67922 9.67397L6.65894 9.67516L6.63858 9.67634L6.61822 9.67762L6.59802 9.67872L6.57766 9.67965L6.5573 9.68058L6.5371 9.68151L6.51674 9.68236L6.49638 9.68312L6.4761 9.68372L6.45582 9.68439L6.43546 9.68499L6.41518 9.6855L6.39482 9.68592L6.37454 9.68626L6.35418 9.68668L6.3339 9.68702L6.31354 9.68719L6.29326 9.68728L6.27298 9.68745L6.25262 9.68761L6.2402 9.6877L6.23234 9.68761L6.21206 9.68753H6.1917L6.17133 9.68736L6.15105 9.68711L6.13078 9.68694L6.11041 9.6866L6.09005 9.68626L6.06986 9.68592L6.04949 9.68541L6.02913 9.6849L6.00885 9.68448L5.98857 9.6838L5.96821 9.68312L5.94793 9.68244L5.92765 9.68177L5.90729 9.681L5.88701 9.68016L5.86665 9.67931L5.84637 9.67846L5.82609 9.67745L5.80573 9.67643L5.78537 9.67541L5.76517 9.67422L5.74481 9.67321L5.72445 9.67194L5.70417 9.67075L5.68389 9.66939L5.66353 9.66804L5.64325 9.66668L5.62297 9.66524L5.60261 9.6638L5.58225 9.66227L5.56197 9.66066L5.54169 9.65914L5.52133 9.65744L5.50105 9.65575L5.48069 9.65406L5.46041 9.65219L5.44013 9.65041L5.41977 9.64855L5.39949 9.6466L5.37921 9.64465L5.35885 9.64261L5.33848 9.6405L5.3182 9.63846L5.29793 9.63634L5.27756 9.63414L5.25729 9.63194L5.23701 9.62965L5.21664 9.62727L5.19628 9.6249L5.176 9.62245L5.15572 9.61999L5.13536 9.61753L5.115 9.61499L5.0948 9.61236L5.07444 9.60973L5.05408 9.60702L5.0338 9.60431L5.01352 9.60151L4.99316 9.59872L4.97288 9.59583L4.9526 9.59295L4.93224 9.59007L4.91196 9.58702L4.8916 9.58397L4.87132 9.58092L4.85104 9.57778L4.83068 9.57456L4.81032 9.57134L4.79012 9.56804L4.76976 9.56473L4.7494 9.56134L4.72912 9.55795L4.70884 9.55448L4.68848 9.551L4.6682 9.54744L4.64792 9.5438L4.62756 9.54016L4.6072 9.53651L4.58692 9.5327L4.56664 9.52897L4.54628 9.52507L4.526 9.52117L4.50564 9.51719L4.48536 9.51321L4.46508 9.50922L4.44472 9.50507L4.42435 9.50083L4.40416 9.49668L4.3838 9.49244L4.36343 9.48804L4.34315 9.48372L4.32288 9.47931L4.30251 9.47482L4.28215 9.47024L4.26196 9.46558L4.24159 9.46092L4.22123 9.45609L4.20095 9.45134L4.18067 9.44634L4.16031 9.44134L4.14003 9.43626L4.11967 9.43109C4.09111 9.42372 4.07605 9.41948 4.07605 9.41948V13.9687H4.11967H4.14003H4.16031H4.18067H4.20095H4.22123H4.24159H4.26196H4.28215H4.30251H4.32288H4.34315H4.36343H4.3838H4.40416H4.42435H4.44472H4.46508H4.48536H4.50564H4.526H4.54628H4.56664H4.58692H4.6072H4.62756H4.64792H4.6682H4.68848H4.70884H4.72912H4.7494H4.76976H4.79012H4.81032H4.83068H4.85104H4.87132H4.8916H4.91196H4.93224H4.9526H4.97288H4.99316H5.01352H5.0338H5.05408H5.07444H5.0948H5.115H5.13536H5.15572H5.176H5.19628H5.21664H5.23701H5.25729H5.27756H5.29793H5.3182H5.33848H5.35885H5.37921H5.39949H5.41977H5.44013H5.46041H5.48069H5.50105H5.52133H5.54169H5.56197H5.58225H5.60261H5.62297H5.64325H5.66353H5.68389H5.70417H5.72445H5.74481H5.76517H5.78537H5.80573H5.82609H5.84637H5.86665H5.88701H5.90729H5.92765H5.94793H5.96821H5.98857H6.00885H6.02913H6.04949H6.06986H6.09005H6.11041H6.13078H6.15105H6.17133H6.1917H6.21206H6.23234H6.25262H6.27298H6.29326H6.31354H6.3339H6.35418H6.37454H6.39482H6.41518H6.43546H6.45582H6.4761H6.49638H6.51674H6.5371H6.5573H6.57766H6.59802H6.61822H6.63858H6.65894H6.67922H6.6995H6.71986H6.74022H6.7605H6.78078H6.80114H6.82142H6.84178H6.86206H6.88234H6.9027H6.92298H6.94326H6.96362H6.98399H7.00418H7.02454H7.04491H7.06519H7.08546H7.10583H7.12611H7.14647H7.16675H7.16824C7.17453 13.9687 7.18073 13.9685 7.18711 13.9685L7.20739 13.9681C7.21417 13.9681 7.22096 13.968 7.22767 13.9678C7.23445 13.9675 7.24124 13.9673 7.24803 13.967C7.25482 13.9667 7.2616 13.9666 7.26831 13.9662L7.28867 13.9651L7.30895 13.9638C7.31574 13.9634 7.32252 13.963 7.32923 13.9624C7.3361 13.962 7.3428 13.9612 7.34959 13.9606L7.36987 13.9588C7.37666 13.9582 7.38344 13.9574 7.39015 13.9568C7.39702 13.956 7.40372 13.9552 7.41051 13.9544C7.4173 13.9536 7.42408 13.9529 7.43087 13.952C7.43766 13.9512 7.44436 13.9502 7.45115 13.9492L7.47143 13.9463C7.47822 13.9453 7.485 13.9444 7.49179 13.9434C7.49858 13.9423 7.50537 13.9411 7.51215 13.9399C7.51894 13.9388 7.52564 13.9377 7.53235 13.9365L7.55271 13.9328C7.5595 13.9314 7.56629 13.9301 7.57307 13.9287C7.57978 13.9274 7.58665 13.9262 7.59335 13.9247C7.60014 13.9234 7.60684 13.9218 7.61363 13.9202L7.63399 13.9157L7.65427 13.9109C7.66106 13.9093 7.66785 13.9075 7.67455 13.9058C7.68134 13.9041 7.68813 13.9025 7.69491 13.9008C7.7017 13.899 7.7084 13.897 7.71519 13.8952C7.72206 13.8933 7.72885 13.8914 7.73555 13.8896L7.75583 13.8835L7.77619 13.8774C7.7829 13.8753 7.78977 13.8734 7.79647 13.8713C7.80334 13.869 7.81005 13.8667 7.81684 13.8644C7.82362 13.8622 7.83033 13.86 7.83711 13.8577L7.85739 13.8506L7.87776 13.8432C7.88454 13.8407 7.89133 13.8384 7.89803 13.8357C7.90482 13.8331 7.91153 13.8305 7.91831 13.8278C7.9251 13.8252 7.93197 13.8226 7.93868 13.82C7.94546 13.8172 7.95225 13.8143 7.95904 13.8115C7.96582 13.8086 7.97253 13.8059 7.97923 13.803L7.9996 13.7942L8.01996 13.7851C8.02674 13.782 8.03353 13.779 8.04024 13.7759C8.04702 13.7727 8.05381 13.7694 8.06052 13.7662C8.0673 13.763 8.07409 13.7598 8.08088 13.7564C8.08766 13.753 8.09445 13.7496 8.10116 13.7462C8.10803 13.7427 8.11481 13.7393 8.12152 13.7358C8.1283 13.7323 8.13501 13.7286 8.1418 13.7251L8.16216 13.7141C8.16895 13.7103 8.17573 13.7066 8.18244 13.7028C8.18931 13.699 8.19601 13.6951 8.20272 13.6912C8.2095 13.6873 8.21629 13.6834 8.22308 13.6793C8.22987 13.6752 8.23657 13.6712 8.24336 13.667C8.25015 13.663 8.25702 13.6589 8.26372 13.6546C8.27051 13.6504 8.27721 13.6461 8.284 13.6417C8.2907 13.6374 8.29757 13.6331 8.30428 13.6287C8.31115 13.6242 8.31785 13.6196 8.32464 13.615C8.33143 13.6104 8.3383 13.6059 8.345 13.6013C8.35171 13.5966 8.35849 13.5918 8.36528 13.5869C8.37207 13.5822 8.37886 13.5774 8.38556 13.5725C8.39243 13.5676 8.39913 13.5625 8.40592 13.5575C8.41271 13.5524 8.4195 13.5474 8.42628 13.5424C8.43299 13.5371 8.43969 13.5318 8.44648 13.5265C8.45327 13.5212 8.46014 13.5159 8.46684 13.5106C8.47363 13.5051 8.48042 13.4995 8.4872 13.4939C8.49399 13.4883 8.50078 13.4829 8.5074 13.4771C8.51427 13.4714 8.52097 13.4655 8.52776 13.4596C8.53455 13.4538 8.54142 13.448 8.54812 13.442C8.55499 13.4359 8.56162 13.4297 8.5684 13.4235C8.57519 13.4174 8.58198 13.4113 8.58868 13.405C8.59555 13.3986 8.60226 13.3921 8.60904 13.3856C8.61583 13.3791 8.62262 13.3725 8.62932 13.366C8.63619 13.3592 8.64298 13.3525 8.64968 13.3457C8.65647 13.3388 8.66318 13.3319 8.66996 13.3248C8.67675 13.3177 8.68354 13.3106 8.69024 13.3035C8.69711 13.2962 8.70382 13.2887 8.7106 13.2813C8.71739 13.2739 8.72418 13.2664 8.73097 13.2589C8.73775 13.2511 8.74446 13.2433 8.75116 13.2354C8.75803 13.2274 8.76482 13.2195 8.77152 13.2114C8.7784 13.2033 8.78518 13.1952 8.79189 13.1869C8.79867 13.1784 8.80538 13.1698 8.81208 13.1612C8.81895 13.1525 8.82574 13.1438 8.83244 13.1351C8.83931 13.1261 8.8461 13.1169 8.85281 13.1079C8.85968 13.0985 8.86638 13.0891 8.87309 13.0796C8.87987 13.0701 8.88674 13.0604 8.89336 13.0507C8.90023 13.0408 8.90702 13.0307 8.91373 13.0207C8.9206 13.0103 8.9273 12.9998 8.93401 12.9893C8.94096 12.9785 8.94766 12.9677 8.95437 12.9569C8.96115 12.9457 8.96802 12.9346 8.97465 12.9232C8.98152 12.9116 8.9883 12.8998 8.99501 12.888C9.00196 12.8757 9.00867 12.8634 9.01529 12.851C9.02216 12.8382 9.02894 12.8253 9.03557 12.8124C9.04252 12.7988 9.04931 12.7852 9.05593 12.7716C9.06288 12.7574 9.06967 12.7431 9.07621 12.7287C9.08316 12.7136 9.08995 12.6985 9.09657 12.6832C9.10344 12.6672 9.11023 12.6509 9.11685 12.6347C9.1238 12.6174 9.13059 12.6 9.13713 12.5824C9.14425 12.5637 9.15103 12.5448 9.15749 12.5258C9.16453 12.5052 9.17131 12.4846 9.17785 12.4637C9.18489 12.4408 9.19176 12.4175 9.19805 12.3942C9.20541 12.3676 9.21212 12.3408 9.21841 12.3138C9.22594 12.2818 9.23265 12.2495 9.23877 12.2169C9.24672 12.1741 9.25359 12.1308 9.25905 12.0872C9.27039 11.9964 9.27627 11.904 9.27627 11.8101V1.01694H9.25905Z" fill="#0E6EB6"/>
<path fill-rule="evenodd" clip-rule="evenodd" d="M15.0532 1.01694H15.0329H15.0127H14.9923H14.9719H14.9517H14.9314H14.911H14.8907H14.8705H14.8501H14.8297H14.8095H14.7892H14.7688H14.7485H14.7283H14.7079H14.6876H14.6673H14.647H14.6267H14.6063H14.586H14.5657H14.5454H14.5251H14.5048H14.4845H14.4641H14.4438H14.4236H14.4032H14.3829H14.3626H14.3423H14.3219H14.3016H14.2813H14.261H14.2407H14.2203H14.2001H14.1797H14.1594H14.1391H14.1188H14.0984H14.0782H14.0578H14.0375H14.0172H13.9969H13.9766H13.9562H13.936H13.9156H13.8953H13.875H13.8547H13.8343H13.814H13.7938H13.7734H13.7531H13.7328H13.7125H13.6921H13.6719H13.6516H13.6312H13.6109H13.5906H13.5703H13.5499H13.5296H13.5094H13.489H13.4687H13.4484H13.4281H13.4078H13.3874H13.3672H13.3469H13.3265H13.3062H13.2859H13.2656H13.2452H13.225H13.2047H13.1843H13.164H13.1437H13.1234H13.103H13.0827H13.0625H13.0421H13.0218H13.0015H12.9812H12.9608H12.9405H12.9203H12.8999H12.8796H12.8593H12.839H12.8186H12.7984H12.7781H12.7577H12.7373H12.7171H12.6968H12.6764H12.6562H12.6358H12.6155H12.5952H12.5749H12.5545H12.5343H12.514H12.4936H12.4733H12.453H12.4327H12.4123H12.3921H12.3717H12.3514H12.3311H12.3108H12.2905H12.2701H12.2498H12.2295H12.2092H12.1889H12.1686H12.1483H12.1279H12.1076H12.0873H12.067H12.0467H12.0264H12.0061H11.9858H11.9744L11.9654 1.01702C11.9586 1.01711 11.9518 1.01719 11.9451 1.01728C11.9384 1.01736 11.9316 1.01736 11.9249 1.01753C11.918 1.0177 11.9113 1.01804 11.9045 1.01829L11.8841 1.01914C11.8774 1.01948 11.8706 1.01965 11.8639 1.02007C11.8571 1.02041 11.8504 1.02101 11.8436 1.02134C11.8368 1.02177 11.83 1.02219 11.8232 1.0227C11.8164 1.02321 11.8096 1.0238 11.8029 1.02439L11.7827 1.02626C11.7759 1.02685 11.769 1.02736 11.7623 1.02804C11.7555 1.02872 11.7487 1.02965 11.7419 1.03041L11.7217 1.03287L11.7014 1.0355C11.6946 1.03634 11.6878 1.03736 11.681 1.03838C11.6742 1.03939 11.6674 1.04016 11.6607 1.04126C11.654 1.04236 11.6472 1.04346 11.6405 1.04465L11.6201 1.04804L11.5997 1.0516C11.5929 1.05295 11.5862 1.05431 11.5795 1.05567C11.5727 1.05694 11.5659 1.05829 11.5592 1.05965C11.5524 1.06101 11.5456 1.06253 11.5388 1.06397L11.5185 1.06855C11.5117 1.07007 11.5049 1.0716 11.4982 1.07321C11.4915 1.07482 11.4847 1.0766 11.4779 1.07829C11.4711 1.0799 11.4643 1.0816 11.4575 1.08338C11.4507 1.08516 11.444 1.08694 11.4373 1.0888L11.417 1.09439C11.4102 1.09643 11.4034 1.09821 11.3966 1.10024C11.3898 1.10219 11.383 1.10431 11.3763 1.10643C11.3695 1.10846 11.3627 1.11041 11.356 1.11253C11.3492 1.11473 11.3425 1.11702 11.3357 1.11923L11.3154 1.12601C11.3086 1.12829 11.3018 1.13058 11.2951 1.13295C11.2883 1.13533 11.2815 1.13778 11.2747 1.14024C11.268 1.1427 11.2612 1.14507 11.2544 1.14762C11.2476 1.15007 11.2409 1.15287 11.2341 1.15541C11.2273 1.15812 11.2205 1.16067 11.2138 1.16338C11.207 1.16609 11.2002 1.16889 11.1935 1.1716L11.1731 1.18016C11.1663 1.18295 11.1596 1.18584 11.1529 1.1888C11.1461 1.19177 11.1393 1.1949 11.1325 1.19795C11.1257 1.20092 11.119 1.20389 11.1122 1.20702C11.1054 1.21016 11.0987 1.21346 11.0919 1.21668C11.0851 1.2199 11.0784 1.22312 11.0716 1.22634C11.0648 1.22973 11.058 1.23304 11.0513 1.23651L11.031 1.24677L11.0106 1.25745C11.0039 1.26109 10.9971 1.26473 10.9903 1.26838C10.9835 1.27211 10.9767 1.27575 10.97 1.27956C10.9632 1.28329 10.9565 1.28728 10.9497 1.29109C10.9429 1.29499 10.9361 1.29872 10.9294 1.3027C10.9226 1.30677 10.9159 1.31092 10.9091 1.31499C10.9023 1.31914 10.8955 1.32312 10.8888 1.32736C10.8819 1.33151 10.8752 1.33592 10.8684 1.34016C10.8617 1.34448 10.8549 1.3488 10.8481 1.35321C10.8413 1.35762 10.8345 1.36211 10.8278 1.36668C10.821 1.37117 10.8142 1.37575 10.8075 1.38033C10.8007 1.38499 10.794 1.38973 10.7872 1.39448C10.7804 1.39931 10.7736 1.40406 10.7669 1.40897C10.76 1.41389 10.7533 1.4188 10.7465 1.4238C10.7398 1.4288 10.733 1.4338 10.7262 1.43897C10.7195 1.44414 10.7127 1.44931 10.706 1.45456C10.6991 1.45982 10.6923 1.46507 10.6856 1.4705C10.6788 1.47592 10.6721 1.48143 10.6653 1.48694C10.6585 1.49245 10.6518 1.49804 10.645 1.50363C10.6382 1.50931 10.6314 1.51516 10.6247 1.52092C10.6178 1.52677 10.611 1.53262 10.6043 1.53855C10.5975 1.54448 10.5908 1.55058 10.584 1.55668C10.5773 1.56287 10.5705 1.56897 10.5638 1.57516C10.5569 1.58151 10.5501 1.58795 10.5434 1.59448C10.5366 1.60084 10.5297 1.60728 10.523 1.6138C10.5163 1.62058 10.5096 1.62736 10.5028 1.63414C10.496 1.641 10.4892 1.64778 10.4825 1.65473C10.4756 1.66177 10.4689 1.66889 10.4621 1.676C10.4553 1.68321 10.4485 1.6905 10.4418 1.69778C10.4351 1.70524 10.4283 1.7127 10.4216 1.72016C10.4147 1.72787 10.408 1.73567 10.4012 1.74338C10.3944 1.75126 10.3876 1.75914 10.3809 1.76702C10.3741 1.77524 10.3673 1.78338 10.3606 1.79168C10.3538 1.79999 10.347 1.80846 10.3403 1.81694C10.3335 1.82558 10.3266 1.83414 10.3199 1.84278C10.3131 1.85168 10.3063 1.86084 10.2996 1.8699C10.2929 1.87906 10.2861 1.88829 10.2794 1.8977C10.2726 1.90719 10.2657 1.9166 10.259 1.92617C10.2521 1.93609 10.2454 1.94617 10.2387 1.95617C10.2318 1.96643 10.2251 1.97677 10.2184 1.98711C10.2116 1.9977 10.2048 2.00838 10.1981 2.01914C10.1912 2.03016 10.1844 2.04126 10.1778 2.05236C10.1708 2.06397 10.1641 2.07567 10.1574 2.08728C10.1506 2.09939 10.1439 2.1116 10.1372 2.1238C10.1303 2.13634 10.1235 2.14906 10.1169 2.16185C10.1099 2.17507 10.1031 2.18838 10.0965 2.20177C10.0896 2.21567 10.0828 2.22973 10.0762 2.2438C10.0693 2.25863 10.0625 2.27346 10.0559 2.28846C10.0489 2.30423 10.0421 2.31999 10.0356 2.336C10.0286 2.35287 10.0218 2.36999 10.0152 2.38711C10.0083 2.40541 10.0015 2.42389 9.99488 2.44245C9.98784 2.46253 9.98114 2.4827 9.97468 2.50295C9.96748 2.52524 9.96069 2.54762 9.95432 2.57016C9.94712 2.59541 9.94033 2.62092 9.93396 2.6466C9.92659 2.67651 9.9198 2.7066 9.91368 2.73711C9.88512 2.87872 9.87006 3.0255 9.87006 3.17575V6.00177C9.88429 5.98931 9.89886 5.97694 9.91368 5.96465C9.92038 5.95906 9.92717 5.95355 9.93396 5.94812C9.94066 5.9427 9.94745 5.93728 9.95432 5.93194C9.96102 5.9266 9.96781 5.92134 9.97468 5.91609C9.98138 5.91092 9.98817 5.90584 9.99488 5.90084C10.0016 5.89575 10.0085 5.89075 10.0152 5.88575C10.0219 5.88092 10.0287 5.876 10.0356 5.87117L10.0559 5.85694C10.0626 5.85228 10.0695 5.8477 10.0762 5.84304L10.0965 5.82948C10.1032 5.82507 10.11 5.82058 10.1169 5.81617C10.1235 5.81185 10.1304 5.80761 10.1372 5.80329C10.1439 5.79906 10.1506 5.79482 10.1574 5.79058C10.1642 5.78643 10.1709 5.78236 10.1778 5.77821C10.1845 5.77422 10.1913 5.77024 10.1981 5.76626C10.2049 5.76228 10.2116 5.75829 10.2184 5.75439L10.2387 5.74287L10.259 5.7316C10.2658 5.72787 10.2725 5.72414 10.2794 5.7205C10.2861 5.71694 10.2929 5.71338 10.2996 5.70982L10.3199 5.69922L10.3403 5.6888L10.3606 5.6788C10.3673 5.6755 10.3741 5.67211 10.3809 5.66889L10.4012 5.65922L10.4216 5.64973L10.4418 5.64058L10.4621 5.63143L10.4825 5.62253L10.5028 5.61389L10.523 5.60533L10.5434 5.59711L10.5638 5.58889C10.5705 5.58617 10.5773 5.58355 10.584 5.58092L10.6043 5.57304C10.611 5.5705 10.6179 5.56795 10.6247 5.56541C10.6314 5.56295 10.6382 5.56041 10.645 5.55787L10.6653 5.55067L10.6856 5.54338C10.6923 5.541 10.6992 5.53872 10.706 5.53643L10.7262 5.52948C10.733 5.52719 10.7398 5.52499 10.7465 5.52278L10.7669 5.51609L10.7872 5.50965L10.8075 5.50338L10.8278 5.49728L10.8481 5.49117L10.8684 5.48516L10.8888 5.47939L10.9091 5.4738L10.9294 5.46821L10.9497 5.4627L10.97 5.45745L10.9903 5.45219L11.0106 5.44711L11.031 5.44211L11.0513 5.43728L11.0716 5.43253L11.0919 5.42795L11.1122 5.42338L11.1325 5.41889L11.1529 5.41456L11.1731 5.41033L11.1935 5.40617L11.2138 5.40211L11.2341 5.39821L11.2544 5.39439L11.2747 5.39058L11.2951 5.38694L11.3154 5.38338L11.3357 5.3799L11.356 5.37651L11.3763 5.37312L11.3966 5.36999L11.417 5.36685L11.4373 5.3638L11.4575 5.36084L11.4779 5.35787L11.4982 5.35516L11.5185 5.35245L11.5388 5.34973L11.5592 5.34719L11.5795 5.34465L11.5997 5.34228L11.6201 5.3399L11.6405 5.33753L11.6607 5.33541L11.681 5.33329L11.7014 5.33117L11.7217 5.32923L11.7419 5.32728L11.7623 5.32541L11.7827 5.32372L11.8029 5.32202L11.8232 5.32033L11.8436 5.3188L11.8639 5.31719L11.8841 5.31575L11.9045 5.31431L11.9249 5.31295L11.9451 5.31177L11.9654 5.3105L11.9858 5.30939L12.0061 5.30829L12.0264 5.30736L12.0467 5.30626L12.067 5.30541L12.0873 5.30456L12.1076 5.30372L12.1279 5.30304L12.1483 5.30236L12.1686 5.30168L12.1889 5.30117L12.2092 5.30058L12.2295 5.30016L12.2498 5.29982L12.2701 5.29939L12.2905 5.29906L12.3108 5.29889L12.3311 5.29863L12.3514 5.29846L12.3717 5.29838L12.3921 5.29829H12.4123H12.4327L12.453 5.29846L12.4733 5.29855L12.4936 5.2988L12.514 5.29906L12.5343 5.29931L12.5545 5.29965L12.5749 5.29999L12.5952 5.3005L12.6155 5.30084L12.6358 5.30134L12.6562 5.30202L12.6764 5.30253L12.6968 5.30321L12.7171 5.30389L12.7373 5.30456L12.7577 5.30533L12.7781 5.30617L12.7984 5.30711L12.8186 5.30795L12.8286 5.30838L12.839 5.30889L12.8593 5.30982L12.8796 5.311L12.8999 5.31202L12.9203 5.31338L12.9405 5.31456L12.9608 5.316L12.9812 5.31745L13.0015 5.31889L13.0218 5.32041L13.0421 5.32211L13.0625 5.3238L13.0827 5.32558L13.103 5.32736L13.1234 5.32931L13.1437 5.33117L13.164 5.33321L13.1843 5.33533L13.2047 5.33736L13.225 5.33956L13.2452 5.34177L13.2656 5.34406L13.2859 5.34634L13.3062 5.3488L13.3265 5.35126L13.3469 5.35372L13.3672 5.35634L13.3874 5.35889L13.4078 5.3616L13.4281 5.36422L13.4484 5.36694L13.4687 5.36982L13.489 5.37261L13.5094 5.3755L13.5296 5.37846L13.5499 5.38151L13.5703 5.38448L13.5906 5.38753L13.6109 5.39067L13.6312 5.3938L13.6516 5.39711L13.6719 5.40033L13.6921 5.40363L13.7125 5.40694L13.7328 5.41041L13.7531 5.4138L13.7734 5.41728L13.7938 5.42075L13.814 5.42431L13.8343 5.42795L13.8547 5.4316L13.875 5.43524L13.8953 5.43897L13.9156 5.4427L13.936 5.44651L13.9562 5.45041L13.9766 5.45431L13.9969 5.45821L14.0172 5.46219L14.0375 5.46617L14.0578 5.47024L14.0782 5.47439L14.0984 5.47846L14.1188 5.48261L14.1391 5.48685L14.1594 5.49117L14.1797 5.49541L14.2001 5.49973L14.2203 5.50414L14.2407 5.50863L14.261 5.51304L14.2813 5.51753L14.3016 5.52211L14.3219 5.52668L14.3423 5.53134L14.3626 5.53609L14.3829 5.54083L14.4032 5.54567L14.4236 5.55058L14.4438 5.55541L14.4641 5.5605L14.4843 5.56558V6.47939L14.4641 6.46906L14.4438 6.45855L14.4236 6.44838L14.4032 6.43812L14.3829 6.42804L14.3626 6.41804L14.3423 6.40821L14.3219 6.39838L14.3016 6.38872L14.2813 6.37914L14.261 6.36973L14.2407 6.36033L14.2203 6.35109L14.2001 6.34202L14.1797 6.33295L14.1594 6.32414L14.1391 6.31524L14.1188 6.3066L14.0984 6.29804L14.0782 6.28956L14.0578 6.28126L14.0375 6.27304L14.0172 6.26499L13.9969 6.25702L13.9766 6.24914L13.9562 6.24143L13.936 6.2338L13.9156 6.22634L13.8953 6.21897L13.875 6.21168L13.8547 6.20456L13.8343 6.19761L13.814 6.19067L13.7938 6.18389L13.7734 6.17728L13.7531 6.17075L13.7328 6.16431L13.7125 6.15804L13.6921 6.15185L13.6719 6.14583L13.6516 6.13999L13.6312 6.13414L13.6109 6.12846L13.5906 6.12287L13.5703 6.11745L13.5499 6.11211L13.5296 6.10694L13.5094 6.10194L13.489 6.09694L13.4687 6.09211L13.4484 6.08745L13.4281 6.08278L13.4078 6.07829L13.3874 6.07397L13.3672 6.06965L13.3469 6.06558L13.3265 6.06151L13.3062 6.05761L13.2859 6.05389L13.2656 6.05024L13.2452 6.0466L13.225 6.04321L13.2047 6.03982L13.1843 6.03668L13.164 6.03355L13.1437 6.0305L13.1234 6.02761L13.103 6.0249L13.0827 6.02228L13.0625 6.01973L13.0421 6.01728L13.0218 6.01499L13.0015 6.01278L12.9812 6.01067L12.9608 6.00863L12.9405 6.00677L12.9203 6.0049L12.8999 6.00329L12.8876 6.00228L12.8796 6.00168L12.8593 6.00033L12.839 5.99897L12.8186 5.99778L12.7984 5.99677L12.7781 5.99575L12.7577 5.99516L12.7373 5.99448L12.7171 5.99397L12.6968 5.99372L12.6764 5.99338C12.6696 5.99338 12.6629 5.99346 12.6562 5.99346L12.6358 5.99355L12.6155 5.99389L12.5952 5.99431L12.5749 5.99482C12.568 5.99507 12.5613 5.99541 12.5545 5.99567C12.5478 5.996 12.541 5.99617 12.5343 5.99651L12.514 5.99778L12.4936 5.99897L12.4733 6.00041L12.453 6.00202C12.4462 6.00261 12.4394 6.00304 12.4327 6.0038C12.4259 6.0044 12.4191 6.00516 12.4123 6.00584L12.3921 6.00787L12.3717 6.01033L12.3514 6.01287L12.3311 6.01558L12.3108 6.01855L12.2905 6.02168C12.2837 6.02278 12.2769 6.02397 12.2701 6.02516C12.2634 6.02626 12.2565 6.02736 12.2498 6.02855C12.243 6.02973 12.2363 6.03117 12.2295 6.03245C12.2228 6.03372 12.2159 6.03499 12.2092 6.03634C12.2024 6.0377 12.1957 6.03923 12.1889 6.04067C12.1821 6.04211 12.1753 6.04355 12.1686 6.04507C12.1618 6.0466 12.1551 6.04821 12.1483 6.04982L12.1279 6.05473C12.1211 6.05643 12.1143 6.05821 12.1076 6.05999C12.1008 6.06177 12.094 6.06355 12.0873 6.06541C12.0806 6.06719 12.0738 6.06923 12.067 6.07117L12.0467 6.07702C12.0398 6.07914 12.0331 6.08126 12.0264 6.08338C12.0196 6.0855 12.0128 6.0877 12.0061 6.0899C11.9993 6.09211 11.9925 6.09448 11.9858 6.09677C11.979 6.09914 11.9721 6.10143 11.9654 6.1038C11.9586 6.10626 11.9518 6.1088 11.9451 6.11134C11.9384 6.1138 11.9316 6.11634 11.9249 6.11897C11.918 6.1216 11.9113 6.12439 11.9045 6.12719C11.8977 6.1299 11.8908 6.13261 11.8841 6.13541C11.8774 6.13829 11.8706 6.14126 11.8639 6.14431C11.8571 6.14728 11.8503 6.15024 11.8436 6.15338C11.8367 6.15643 11.83 6.15965 11.8232 6.16287C11.8164 6.16617 11.8096 6.16939 11.8029 6.1727C11.7962 6.17617 11.7894 6.17956 11.7827 6.18304C11.7758 6.18651 11.769 6.19007 11.7623 6.19372C11.7555 6.19736 11.7486 6.201 11.7419 6.20473C11.7351 6.20855 11.7284 6.21253 11.7217 6.21643C11.7149 6.22041 11.7081 6.22431 11.7014 6.22838C11.6945 6.23253 11.6877 6.23668 11.681 6.24092C11.6741 6.24524 11.6674 6.24956 11.6607 6.25397C11.654 6.25846 11.6471 6.26287 11.6405 6.26736C11.6336 6.27211 11.6269 6.27685 11.6201 6.2816C11.6132 6.28651 11.6064 6.29134 11.5997 6.29634C11.5929 6.30134 11.5861 6.30643 11.5795 6.31151C11.5727 6.31685 11.5659 6.32228 11.5592 6.3277C11.5523 6.33321 11.5455 6.33863 11.5388 6.34431C11.532 6.35007 11.5252 6.35575 11.5185 6.3616C11.5116 6.36761 11.5049 6.37372 11.4982 6.37982C11.4914 6.38609 11.4846 6.39253 11.4779 6.39889C11.471 6.4055 11.4642 6.41202 11.4575 6.41872C11.4507 6.42558 11.4439 6.43245 11.4373 6.43939C11.4304 6.44668 11.4237 6.45406 11.417 6.46143C11.4101 6.46906 11.4033 6.47668 11.3966 6.48439C11.3897 6.49245 11.383 6.5005 11.3763 6.50872C11.3694 6.51711 11.3626 6.52558 11.356 6.53414C11.3492 6.54304 11.3423 6.55202 11.3357 6.56109C11.3288 6.5705 11.322 6.5799 11.3154 6.58956C11.3085 6.59956 11.3017 6.60965 11.2951 6.61999C11.2882 6.63067 11.2814 6.64143 11.2747 6.65236C11.2678 6.6638 11.261 6.6755 11.2544 6.68728C11.2475 6.69956 11.2407 6.71211 11.2341 6.72473C11.2271 6.73821 11.2203 6.75185 11.2138 6.76558C11.2068 6.78024 11.2 6.79507 11.1935 6.81007C11.1865 6.82626 11.1796 6.84253 11.1731 6.85914C11.1659 6.87745 11.1593 6.89617 11.1529 6.91507C11.1457 6.93592 11.1389 6.95719 11.1325 6.97872C11.1252 7.00372 11.1184 7.02906 11.1122 7.0549C11.1045 7.08711 11.0978 7.11999 11.0919 7.15338C11.0832 7.20295 11.0764 7.25397 11.0716 7.30634C11.0661 7.36685 11.0633 7.42906 11.0633 7.49321C11.0633 7.55719 11.0661 7.61939 11.0716 7.6799C11.0764 7.73219 11.0832 7.78321 11.0919 7.8327C11.0978 7.86617 11.1045 7.89897 11.1122 7.93109C11.1184 7.95694 11.1252 7.98236 11.1325 8.00736C11.1389 8.0288 11.1457 8.05007 11.1529 8.07092C11.1593 8.08982 11.1659 8.10846 11.1731 8.12685C11.1796 8.14338 11.1865 8.15973 11.1935 8.17583C11.2 8.19083 11.2068 8.20575 11.2138 8.22033C11.2203 8.23406 11.2271 8.2477 11.2341 8.26109C11.2407 8.27372 11.2475 8.28634 11.2544 8.29872C11.261 8.31033 11.2678 8.32202 11.2747 8.33346C11.2814 8.34439 11.2882 8.35524 11.2951 8.36592C11.3017 8.37617 11.3085 8.38626 11.3154 8.39626C11.322 8.40583 11.3288 8.41533 11.3357 8.42473C11.3423 8.43389 11.3492 8.44278 11.356 8.45168C11.3626 8.46024 11.3694 8.4688 11.3763 8.47719C11.383 8.48524 11.3897 8.49338 11.3966 8.50134C11.4033 8.50906 11.4101 8.51677 11.417 8.52439C11.4237 8.53168 11.4304 8.53906 11.4373 8.54634C11.4439 8.55338 11.4507 8.56016 11.4575 8.56702C11.4642 8.57363 11.471 8.58033 11.4779 8.58685C11.4846 8.59329 11.4914 8.59956 11.4982 8.60583C11.5049 8.61202 11.5116 8.61812 11.5185 8.62414C11.5252 8.62999 11.532 8.63566 11.5388 8.64134C11.5455 8.64702 11.5523 8.65253 11.5592 8.65804C11.5659 8.66346 11.5727 8.6688 11.5795 8.67406C11.5861 8.67931 11.5929 8.68431 11.5997 8.68939C11.6064 8.69431 11.6132 8.69922 11.6201 8.70397C11.6269 8.7088 11.6336 8.71363 11.6405 8.71829C11.6471 8.72287 11.654 8.72728 11.6607 8.73168C11.6674 8.73609 11.6741 8.7405 11.681 8.74473C11.6877 8.74889 11.6945 8.75321 11.7014 8.75728C11.7081 8.76134 11.7149 8.76533 11.7217 8.76931C11.7284 8.77321 11.7351 8.77711 11.7419 8.78092C11.7486 8.78473 11.7555 8.78829 11.7623 8.79194C11.769 8.7955 11.7758 8.79914 11.7827 8.80262C11.7894 8.80609 11.7962 8.80956 11.8029 8.81287C11.8096 8.81626 11.8164 8.81948 11.8232 8.82278C11.83 8.82592 11.8367 8.82914 11.8436 8.83228C11.8503 8.83541 11.8571 8.83829 11.8639 8.84134C11.8706 8.84431 11.8774 8.84728 11.8841 8.85024C11.8908 8.85304 11.8977 8.85567 11.9045 8.85846C11.9113 8.86117 11.918 8.86397 11.9249 8.8666C11.9316 8.86931 11.9384 8.87168 11.9451 8.87431C11.9518 8.87685 11.9586 8.87931 11.9654 8.88177C11.9721 8.88422 11.979 8.88651 11.9858 8.88889C11.9925 8.89117 11.9993 8.89346 12.0061 8.89575C12.0128 8.89795 12.0196 8.90007 12.0264 8.90219C12.0331 8.90439 12.0398 8.90651 12.0467 8.90855C12.0534 8.91058 12.0602 8.91253 12.067 8.91439C12.0738 8.91643 12.0806 8.91829 12.0873 8.92024C12.094 8.92202 12.1008 8.9238 12.1076 8.92558C12.1143 8.92736 12.1211 8.92914 12.1279 8.93083L12.1483 8.93575C12.1551 8.93728 12.1618 8.93897 12.1686 8.9405C12.1753 8.94202 12.1821 8.94338 12.1889 8.9449C12.1957 8.94634 12.2024 8.94787 12.2092 8.94922C12.2159 8.95058 12.2228 8.95177 12.2295 8.95312C12.2363 8.95439 12.243 8.95575 12.2498 8.95702C12.2565 8.95829 12.2634 8.95931 12.2701 8.9605C12.2769 8.96168 12.2837 8.96287 12.2905 8.96389C12.2972 8.96499 12.304 8.966 12.3108 8.96702L12.3311 8.96999L12.3514 8.9727L12.3717 8.97524L12.3921 8.97761L12.4123 8.97973C12.4191 8.98041 12.4258 8.98117 12.4327 8.98185C12.4394 8.98244 12.4462 8.98295 12.453 8.98355L12.4733 8.98524L12.4936 8.9866L12.514 8.98787L12.5343 8.98906C12.541 8.98931 12.5478 8.98956 12.5545 8.98982C12.5613 8.99016 12.568 8.9905 12.5749 8.99067L12.5952 8.99126L12.6155 8.99168L12.6358 8.99202L12.6562 8.99211C12.6629 8.99211 12.6696 8.99219 12.6764 8.99219L12.6968 8.99185L12.7171 8.99151L12.7373 8.99109L12.7577 8.9905L12.7781 8.98982L12.7984 8.9888L12.8186 8.9877L12.839 8.98668L12.8593 8.98524L12.8796 8.9838L12.8876 8.98329L12.8999 8.98228L12.9203 8.98067L12.9405 8.9788L12.9608 8.97685L12.9812 8.97482L13.0015 8.9727L13.0218 8.97041L13.0421 8.96804L13.0625 8.96558L13.0827 8.96304L13.103 8.96033L13.1234 8.95753L13.1437 8.95465L13.164 8.9516L13.1843 8.94846L13.2047 8.94516L13.225 8.94177L13.2452 8.93838L13.2656 8.93473L13.2859 8.93109L13.3062 8.92728L13.3265 8.92329L13.3469 8.91922L13.3672 8.91507L13.3874 8.91075L13.4078 8.90634L13.4281 8.90185L13.4484 8.89719L13.4687 8.89245L13.489 8.88761L13.5094 8.88253L13.5296 8.87753L13.5499 8.87228L13.5703 8.86694L13.5906 8.86151L13.6109 8.85592L13.6312 8.85024L13.6516 8.84439L13.6719 8.83846L13.6921 8.83245L13.7125 8.82626L13.7328 8.8199L13.7531 8.81363L13.7734 8.80702L13.7938 8.80041L13.814 8.79363L13.8343 8.78677L13.8547 8.77973L13.875 8.77261L13.8953 8.76541L13.9156 8.75804L13.936 8.75058L13.9562 8.74304L13.9766 8.73533L13.9969 8.72753L14.0172 8.71956L14.0375 8.71151L14.0578 8.70338L14.0782 8.69507L14.0984 8.68668L14.1188 8.67812L14.1391 8.66948L14.1594 8.66084L14.1797 8.65194L14.2001 8.64295L14.2203 8.63397L14.2407 8.62482L14.261 8.6155L14.2813 8.60617L14.3016 8.5966L14.3219 8.58711L14.3423 8.57728L14.3626 8.56753L14.3829 8.5577L14.4032 8.54762L14.4236 8.53761L14.4438 8.52744L14.4641 8.51711L14.4843 8.50685V9.41999L14.4641 9.42507L14.4438 9.43007L14.4236 9.43507L14.4032 9.4399L14.3829 9.44473L14.3626 9.44948L14.3423 9.45422L14.3219 9.45889L14.3016 9.46346L14.2813 9.46804L14.261 9.47261L14.2407 9.47702L14.2203 9.48143L14.2001 9.48584L14.1797 9.49016L14.1594 9.49448L14.1391 9.49872L14.1188 9.50295L14.0984 9.50711L14.0782 9.51126L14.0578 9.51533L14.0375 9.51939L14.0172 9.52346L13.9969 9.52744L13.9766 9.53134L13.9562 9.53516L13.936 9.53906L13.9156 9.54287L13.8953 9.54668L13.875 9.55041L13.8547 9.55406L13.8343 9.5577L13.814 9.56126L13.7938 9.5649L13.7734 9.56838L13.7531 9.57185L13.7328 9.57533L13.7125 9.57863L13.6921 9.58202L13.6719 9.58541L13.6516 9.58855L13.6312 9.59185L13.6109 9.59499L13.5906 9.59812L13.5703 9.60126L13.5499 9.60431L13.5296 9.60728L13.5094 9.61016L13.489 9.61304L13.4687 9.616L13.4484 9.6188L13.4281 9.62151L13.4078 9.62422L13.3874 9.62685L13.3672 9.62948L13.3469 9.63202L13.3265 9.63448L13.3062 9.63702L13.2859 9.63939L13.2656 9.64177L13.2452 9.64406L13.225 9.64626L13.2047 9.64846L13.1843 9.65058L13.164 9.65261L13.1437 9.65465L13.1234 9.6566L13.103 9.65846L13.0827 9.66033L13.0625 9.66211L13.0421 9.6638L13.0218 9.6655L13.0015 9.66702L12.9812 9.66855L12.9608 9.66999L12.9405 9.67134L12.9203 9.67261L12.8999 9.67389L12.8796 9.67499L12.8593 9.67617L12.839 9.67711L12.8286 9.6777L12.8186 9.67804L12.7984 9.67897L12.7781 9.67982L12.7577 9.68067L12.7373 9.68143L12.7171 9.68211L12.6968 9.68287L12.6764 9.68346L12.6562 9.68405L12.6358 9.68465L12.6155 9.68516L12.5952 9.68558L12.5749 9.686L12.5545 9.68643L12.5343 9.68668L12.514 9.68694L12.4936 9.68728L12.4733 9.68745L12.453 9.68761L12.4327 9.6877H12.4123H12.3921H12.3717L12.3514 9.68761L12.3311 9.68736L12.3108 9.68719L12.2905 9.68694L12.2701 9.6866L12.2498 9.68626L12.2295 9.68592L12.2092 9.68541L12.1889 9.68482L12.1686 9.68439L12.1483 9.68372L12.1279 9.68304L12.1076 9.68236L12.0873 9.68151L12.067 9.68067L12.0467 9.67973L12.0264 9.67872L12.0061 9.6777L11.9858 9.67668L11.9654 9.6755L11.9451 9.67431L11.9249 9.67312L11.9045 9.67177L11.8841 9.67024L11.8639 9.66889L11.8436 9.66728L11.8232 9.66575L11.8029 9.66414L11.7827 9.66236L11.7623 9.66058L11.7419 9.6588L11.7217 9.65685L11.7014 9.6549L11.681 9.65278L11.6607 9.65066L11.6405 9.64855L11.6201 9.64617L11.5997 9.64389L11.5795 9.64143L11.5592 9.63888L11.5388 9.63643L11.5185 9.63372L11.4982 9.631L11.4779 9.62821L11.4575 9.62524L11.4373 9.62236L11.417 9.61931L11.3966 9.61609L11.3763 9.61295L11.356 9.60965L11.3357 9.60617L11.3154 9.60278L11.2951 9.59923L11.2747 9.5955L11.2544 9.59177L11.2341 9.58787L11.2138 9.58397L11.1935 9.57999L11.1731 9.57584L11.1529 9.5716L11.1325 9.56728L11.1122 9.56278L11.0919 9.55821L11.0716 9.55363L11.0513 9.54889L11.031 9.54405L11.0106 9.53906L10.9903 9.53397L10.97 9.52872L10.9497 9.52346L10.9294 9.51804L10.9091 9.51244L10.8888 9.50685L10.8684 9.50092L10.8481 9.49507L10.8278 9.48897L10.8075 9.48287L10.7872 9.47643L10.7669 9.47016L10.7465 9.46346C10.7398 9.46117 10.733 9.45897 10.7262 9.45677C10.7194 9.45448 10.7127 9.45211 10.706 9.44982L10.6856 9.44287L10.6653 9.43558C10.6585 9.43321 10.6518 9.43075 10.645 9.42838C10.6382 9.42592 10.6314 9.42329 10.6247 9.42083L10.6043 9.41321C10.5975 9.41067 10.5908 9.40795 10.584 9.40533L10.5638 9.39744L10.5434 9.38922L10.523 9.38092L10.5028 9.37236L10.4825 9.36372L10.4621 9.35482L10.4418 9.34575L10.4216 9.3366L10.4012 9.32702L10.3809 9.31744C10.3741 9.31414 10.3673 9.31083 10.3606 9.30744L10.3403 9.29744L10.3199 9.28711L10.2996 9.2766C10.2929 9.27295 10.2861 9.26939 10.2794 9.26583C10.2725 9.26211 10.2658 9.25838 10.259 9.25473L10.2387 9.24346L10.2184 9.23194L10.1981 9.22016C10.1913 9.21617 10.1845 9.21219 10.1778 9.20812C10.1709 9.20406 10.1642 9.1999 10.1574 9.19575L10.1372 9.18304C10.1304 9.1788 10.1235 9.17448 10.1169 9.17024C10.11 9.16584 10.1032 9.16143 10.0965 9.15694L10.0762 9.14329C10.0695 9.13872 10.0626 9.13414 10.0559 9.12948L10.0356 9.11524C10.0287 9.11033 10.0219 9.1055 10.0152 9.10058C10.0085 9.09567 10.0016 9.09067 9.99488 9.08567C9.98817 9.08058 9.98138 9.0755 9.97468 9.07041C9.96781 9.06516 9.96102 9.0599 9.95432 9.05456C9.94745 9.04922 9.94066 9.0438 9.93396 9.03838C9.92717 9.03287 9.92038 9.02736 9.91368 9.02185C9.89886 9.00956 9.88429 8.99719 9.87006 8.98465V13.9687H9.91368H9.93396H9.95432H9.97468H9.99488H10.0152H10.0356H10.0559H10.0762H10.0965H10.1169H10.1372H10.1574H10.1778H10.1981H10.2184H10.2387H10.259H10.2794H10.2996H10.3199H10.3403H10.3606H10.3809H10.4012H10.4216H10.4418H10.4621H10.4825H10.5028H10.523H10.5434H10.5638H10.584H10.6043H10.6247H10.645H10.6653H10.6856H10.706H10.7262H10.7465H10.7669H10.7872H10.8075H10.8278H10.8481H10.8684H10.8888H10.9091H10.9294H10.9497H10.97H10.9903H11.0106H11.031H11.0513H11.0716H11.0919H11.1122H11.1325H11.1529H11.1731H11.1935H11.2138H11.2341H11.2544H11.2747H11.2951H11.3154H11.3357H11.356H11.3763H11.3966H11.417H11.4373H11.4575H11.4779H11.4982H11.5185H11.5388H11.5592H11.5795H11.5997H11.6201H11.6405H11.6607H11.681H11.7014H11.7217H11.7419H11.7623H11.7827H11.8029H11.8232H11.8436H11.8639H11.8841H11.9045H11.9249H11.9451H11.9654H11.9858H12.0061H12.0264H12.0467H12.067H12.0873H12.1076H12.1279H12.1483H12.1686H12.1889H12.2092H12.2295H12.2498H12.2701H12.2905H12.3108H12.3311H12.3514H12.3717H12.3921H12.4123H12.4327H12.453H12.4733H12.4936H12.514H12.5343H12.5545H12.5749H12.5952H12.6155H12.6358H12.6562H12.6764H12.6968H12.7171H12.7373H12.7577H12.7781H12.7984H12.8186H12.839H12.8593H12.8796H12.8999H12.9203H12.9405H12.9608H12.9622C12.9685 13.9687 12.9748 13.9685 12.9812 13.9685L13.0015 13.9681C13.0083 13.9681 13.015 13.968 13.0218 13.9678C13.0285 13.9675 13.0353 13.9673 13.0421 13.967C13.0489 13.9667 13.0557 13.9666 13.0625 13.9663L13.0827 13.9651L13.103 13.9638C13.1098 13.9634 13.1166 13.963 13.1234 13.9624C13.1302 13.962 13.1369 13.9612 13.1437 13.9607L13.164 13.9588C13.1707 13.9582 13.1775 13.9574 13.1843 13.9568C13.1911 13.956 13.1979 13.9552 13.2047 13.9544C13.2114 13.9536 13.2183 13.9529 13.225 13.952C13.2317 13.9512 13.2385 13.9502 13.2452 13.9492L13.2656 13.9463C13.2723 13.9453 13.2792 13.9444 13.2859 13.9434C13.2927 13.9423 13.2995 13.9411 13.3062 13.9399C13.3129 13.9388 13.3197 13.9377 13.3265 13.9365L13.3469 13.9328L13.3672 13.9287C13.3739 13.9274 13.3807 13.9262 13.3874 13.9247C13.3942 13.9233 13.401 13.9217 13.4078 13.9202L13.4281 13.9157L13.4484 13.9109C13.4551 13.9093 13.4619 13.9075 13.4687 13.9058C13.4755 13.9041 13.4823 13.9025 13.489 13.9008C13.4959 13.899 13.5026 13.897 13.5094 13.8951C13.5161 13.8933 13.5229 13.8914 13.5296 13.8896L13.5499 13.8835L13.5703 13.8774C13.5771 13.8752 13.5839 13.8733 13.5906 13.8712C13.5974 13.869 13.6041 13.8667 13.6109 13.8644C13.6176 13.8621 13.6245 13.8599 13.6312 13.8576L13.6516 13.8506L13.6719 13.8432C13.6786 13.8407 13.6854 13.8383 13.6921 13.8357C13.699 13.8331 13.7057 13.8304 13.7125 13.8278C13.7193 13.8252 13.7261 13.8226 13.7328 13.8199C13.7396 13.8171 13.7463 13.8143 13.7531 13.8115L13.7734 13.803L13.7938 13.7942L13.814 13.7851C13.8208 13.782 13.8276 13.779 13.8343 13.7758C13.8412 13.7727 13.8479 13.7693 13.8547 13.7661C13.8615 13.7629 13.8683 13.7597 13.875 13.7563C13.8818 13.753 13.8886 13.7496 13.8953 13.7462C13.9021 13.7426 13.9089 13.7392 13.9156 13.7357C13.9224 13.7322 13.9292 13.7286 13.936 13.725L13.9562 13.7141L13.9766 13.7027L13.9969 13.6912C14.0037 13.6872 14.0105 13.6833 14.0172 13.6793C14.024 13.6752 14.0307 13.6711 14.0375 13.6669C14.0443 13.6629 14.0511 13.6588 14.0578 13.6546C14.0646 13.6503 14.0714 13.646 14.0782 13.6417C14.0849 13.6373 14.0917 13.633 14.0984 13.6286C14.1053 13.6241 14.112 13.6195 14.1188 13.6149C14.1256 13.6103 14.1324 13.6058 14.1391 13.6013C14.1459 13.5966 14.1527 13.5917 14.1594 13.5869C14.1662 13.5821 14.173 13.5774 14.1797 13.5724C14.1866 13.5675 14.1933 13.5624 14.2001 13.5574C14.2068 13.5524 14.2136 13.5474 14.2203 13.5423C14.2272 13.537 14.2339 13.5318 14.2407 13.5264C14.2474 13.5212 14.2543 13.5158 14.261 13.5104C14.2679 13.5051 14.2746 13.4994 14.2813 13.4938C14.288 13.4883 14.2949 13.4828 14.3016 13.4771C14.3084 13.4713 14.3151 13.4655 14.3219 13.4596C14.3287 13.4537 14.3356 13.448 14.3423 13.4419C14.3491 13.4359 14.3559 13.4296 14.3626 13.4235C14.3694 13.4174 14.3761 13.4113 14.3829 13.4049C14.3897 13.3985 14.3964 13.392 14.4032 13.3855C14.41 13.3791 14.4168 13.3724 14.4236 13.3658C14.4303 13.3591 14.4371 13.3524 14.4438 13.3456C14.4506 13.3386 14.4574 13.3317 14.4641 13.3246C14.4709 13.3176 14.4777 13.3106 14.4845 13.3035C14.4913 13.2962 14.4981 13.2886 14.5048 13.2813C14.5115 13.2738 14.5183 13.2663 14.5251 13.2587C14.5319 13.2511 14.5386 13.2432 14.5454 13.2353C14.5522 13.2274 14.559 13.2194 14.5657 13.2114C14.5726 13.2031 14.5793 13.195 14.586 13.1868C14.5928 13.1783 14.5995 13.1696 14.6063 13.1612C14.6131 13.1524 14.62 13.1437 14.6267 13.1349C14.6335 13.1259 14.6403 13.1169 14.647 13.1078C14.6538 13.0985 14.6606 13.0891 14.6673 13.0796C14.6741 13.07 14.6809 13.0604 14.6876 13.0506C14.6944 13.0407 14.7013 13.0308 14.7079 13.0207C14.7148 13.0102 14.7216 12.9997 14.7283 12.9892C14.735 12.9785 14.7418 12.9676 14.7485 12.9568C14.7554 12.9456 14.7622 12.9344 14.7688 12.9231C14.7758 12.9114 14.7826 12.8997 14.7892 12.888C14.796 12.8757 14.8028 12.8633 14.8095 12.8509C14.8163 12.8381 14.8231 12.8252 14.8297 12.8122C14.8367 12.7988 14.8435 12.7852 14.8501 12.7715C14.8571 12.7574 14.8638 12.743 14.8705 12.7286C14.8773 12.7135 14.8841 12.6984 14.8907 12.6831C14.8977 12.667 14.9045 12.6508 14.911 12.6346C14.9181 12.6173 14.9248 12.5998 14.9314 12.5823C14.9383 12.5635 14.9451 12.5446 14.9517 12.5257C14.9587 12.5052 14.9656 12.4845 14.9719 12.4636C14.9791 12.4406 14.9859 12.4174 14.9923 12.3941C14.9996 12.3675 15.0063 12.3407 15.0127 12.3137C15.0201 12.2817 15.0269 12.2493 15.0329 12.2168C15.041 12.174 15.0478 12.1307 15.0532 12.0871C15.0646 11.9964 15.0704 11.904 15.0704 11.8101V1.01694H15.0532Z" fill="#E9324F"/>
</g>
<defs>
<clipPath id="clip0_1_243">
<rect width="25" height="15" fill="white"/>
</clipPath>
</defs>
</svg>
