<svg width="24" height="24" viewBox="0 0 24 24" fill="#000" xmlns="http://www.w3.org/2000/svg">
<path d="M22.5415 10.8916H13.1083V1.45835C13.1083 0.846217 12.6121 0.35 11.9999 0.35C11.3878 0.35 10.8916 0.846217 10.8916 1.45835V10.8917H1.45836C1.45836 10.8917 1.45835 10.8917 1.45835 10.8917C0.846207 10.8916 0.35 11.3878 0.35 12C0.35 12.6121 0.846215 13.1083 1.45835 13.1083H10.8917V22.5416C10.8917 23.1538 11.3879 23.65 12 23.65C12.6121 23.65 13.1083 23.1538 13.1083 22.5416V13.1083H22.5417C23.1538 13.1083 23.65 12.6121 23.65 12C23.65 11.3878 23.1537 10.8916 22.5415 10.8916Z" fill="black" stroke="black" stroke-width="0.3"/>
</svg>
