<svg width="25" height="15" viewBox="0 0 25 15" fill="none" xmlns="http://www.w3.org/2000/svg">
<g clip-path="url(#clip0_1_233)">
<path fill-rule="evenodd" clip-rule="evenodd" d="M9.42481 3.56744L6.17536 11.4985H4.05399L2.45572 5.16916C2.35841 4.77975 2.2736 4.63647 1.97904 4.47386C1.49656 4.20539 0.701541 3.95436 -3.05176e-05 3.79758L0.0477092 3.56744H3.46009C3.89584 3.56744 4.2873 3.86366 4.38563 4.37557L5.23072 8.96578L7.31766 3.56744H9.42481ZM17.7324 8.90947C17.741 6.8164 14.9023 6.70138 14.9227 5.76586C14.9286 5.48149 15.1931 5.17924 15.7727 5.1009C16.0611 5.06287 16.8525 5.03337 17.7505 5.45572L18.1036 3.7743C17.6212 3.5956 16.9987 3.42291 16.2275 3.42291C14.2451 3.42291 12.849 4.50171 12.837 6.04484C12.8251 7.18764 13.8331 7.82309 14.5933 8.20274C15.3752 8.59216 15.6375 8.84079 15.6338 9.18886C15.629 9.7202 15.0114 9.95533 14.4342 9.96499C13.4262 9.9811 12.8395 9.68602 12.3725 9.4644L12.0098 11.2022C12.4778 11.4227 13.3434 11.6136 14.2401 11.6232C16.3474 11.6232 17.7266 10.558 17.7324 8.90947ZM22.9684 11.4985H24.8239L23.204 3.56744H21.4908C21.1076 3.56744 20.7821 3.79758 20.6384 4.15032L17.6285 11.4985H19.7346L20.1535 10.3143H22.7262L22.9684 11.4985ZM20.7293 8.6891L21.7865 5.71059L22.3934 8.6891H20.7293ZM12.2912 3.56744L10.6327 11.4985H8.62725L10.2858 3.56744H12.2912Z" fill="#2A2A6D"/>
</g>
<defs>
<clipPath id="clip0_1_233">
<rect width="25" height="15" fill="white"/>
</clipPath>
</defs>
</svg>
